<svg width="20" height="21" viewBox="0 0 20 21" fill="none" xmlns="http://www.w3.org/2000/svg">
<path d="M7.43692 0.789429C3.33562 0.789429 0 4.12498 0 8.22618C0 12.3274 3.33562 15.6629 7.43692 15.6629C9.30439 15.6629 11.0107 14.9678 12.3172 13.828L19.129 20.6397C19.3186 20.8348 19.6671 20.8412 19.8585 20.6479C20.0499 20.4547 20.0476 20.098 19.8503 19.9107L13.0467 13.1072C14.1846 11.8008 14.8738 10.0922 14.8738 8.22709C14.8738 4.12543 11.5382 0.789429 7.43692 0.789429ZM7.43692 1.81473C10.9837 1.81473 13.8481 4.67907 13.8481 8.22572C13.8481 11.7724 10.9837 14.6367 7.43692 14.6367C3.89019 14.6367 1.02578 11.7728 1.02578 8.22618C1.02578 4.67953 3.89019 1.81519 7.43692 1.81519V1.81473Z" fill="#B2B2B2"/>
</svg>
