<svg width="62" height="62" viewBox="0 0 62 62" fill="none" xmlns="http://www.w3.org/2000/svg">
<path d="M60.3922 54.5376H56.4728V24.9054C59.424 23.6098 61.4909 20.6609 61.4909 17.2355C61.4909 17.0747 61.4525 16.9162 61.3779 16.7741L53.2525 1.18725C52.8645 0.443906 52.1328 0 51.2927 0H10.7039C9.86498 0 9.13212 0.443906 8.74414 1.18725L0.618673 16.7717C0.544106 16.915 0.505657 17.0735 0.505657 17.2331C0.505657 20.6574 2.57372 23.6063 5.52378 24.903V54.5352H1.60435C0.720037 54.5352 0 55.2553 0 56.1408V60.3922C0 61.2766 0.720037 61.9966 1.60435 61.9966H60.3922C61.2766 61.9966 61.9966 61.2766 61.9966 60.3922V56.1408C61.9966 55.2553 61.2766 54.5364 60.3922 54.5364V54.5376ZM53.1185 23.6098C49.9447 23.6098 47.3057 21.2772 46.8246 18.2363H59.4124C58.9312 21.2772 56.2934 23.6098 53.1185 23.6098ZM31.9985 2.00049H40.6961L44.4477 16.2346H31.9985V2.00049ZM29.9992 16.2346H17.55L21.3017 2.00049H29.9992V16.2346ZM29.92 18.234C29.4388 21.2749 26.7998 23.6074 23.6261 23.6074C20.4523 23.6074 17.8133 21.2749 17.3322 18.234H29.9212H29.92ZM44.6668 18.234C44.1856 21.2749 41.5466 23.6074 38.3729 23.6074C35.1991 23.6074 32.5601 21.2749 32.0789 18.234H44.6679H44.6668ZM51.4792 2.11118L58.8427 16.2323H46.5158L42.7641 1.99816H51.2927C51.3836 1.99816 51.4372 2.03195 51.4792 2.11001V2.11118ZM10.5186 2.11118C10.5605 2.03078 10.6141 1.99816 10.705 1.99816H19.2336L15.482 16.2323H3.15511L10.5186 2.11118ZM2.58538 18.234H15.1732C14.692 21.2749 12.053 23.6074 8.87929 23.6074C5.70554 23.6074 3.06773 21.2749 2.58538 18.234ZM7.52311 25.4961C7.96468 25.5683 8.41675 25.6079 8.87696 25.6079C12.06 25.6079 14.8342 23.823 16.2509 21.2003C17.6665 23.8218 20.4407 25.6079 23.6249 25.6079C26.8092 25.6079 29.5833 23.8218 30.9989 21.2003C32.4145 23.8218 35.1886 25.6079 38.3729 25.6079C41.5571 25.6079 44.3301 23.823 45.7468 21.2003C47.1624 23.8218 49.9366 25.6079 53.1196 25.6079C53.581 25.6079 54.0331 25.5683 54.4735 25.4961V54.5364H25.2328V31.8809C25.2328 30.6622 24.2413 29.6718 23.0237 29.6718H11.9738C10.7551 29.6718 9.76478 30.6633 9.76478 31.882V54.5376H7.52427V25.4972L7.52311 25.4961ZM23.2323 54.5364H11.7641V31.8797C11.7641 31.7667 11.8596 31.67 11.9738 31.67H23.0225C23.1356 31.67 23.2323 31.7655 23.2323 31.8797V54.5364ZM59.9973 59.9961H2.00049V56.5357H59.9984V59.9961H59.9973ZM28.7013 49.4204H51.005C51.5572 49.4204 52.0046 48.973 52.0046 48.4207V30.6715C52.0046 30.1192 51.5561 29.6718 51.0038 29.6718H28.7013C28.149 29.6718 27.7016 30.1192 27.7016 30.6715V48.4207C27.7016 48.9718 28.149 49.4204 28.7013 49.4204ZM36.8908 37.4664C36.8908 35.8329 38.2191 34.5047 39.8525 34.5047C41.486 34.5047 42.8142 35.8329 42.8142 37.4664C42.8142 39.0999 41.486 40.4269 39.8537 40.4281H39.8514C38.2191 40.4281 36.8908 39.0987 36.8908 37.4664ZM39.8537 42.4274C42.9727 42.4274 45.6292 44.5083 46.4366 47.4199H33.2685C34.0759 44.5083 36.7324 42.4274 39.8514 42.4274H39.8537ZM29.701 31.6711H50.0041V47.4211H48.4942C47.8825 44.5211 45.875 42.1863 43.2302 41.0957C44.2031 40.1893 44.8136 38.8983 44.8136 37.4652C44.8136 34.7296 42.5871 32.503 39.8514 32.503C37.1157 32.503 34.8903 34.7296 34.8903 37.4652C34.8903 38.8972 35.5009 40.1893 36.4737 41.0945C33.8289 42.1851 31.8214 44.5188 31.2098 47.4199H29.6998V31.6711H29.701Z" fill="#D92CFF"/>
</svg>
