<svg width="312" height="56" viewBox="0 0 312 56" fill="none" xmlns="http://www.w3.org/2000/svg">
<path d="M235.544 11.7386C232.659 11.7386 229.997 12.7068 227.863 14.3329C228.008 13.9627 228.093 13.5949 227.998 13.2697C227.938 13.062 227.73 12.8193 227.818 12.7493C227.961 12.6342 227.688 12.4616 227.728 12.3465C227.921 11.7786 227.493 11.1831 227.1 10.5627V2.12655C227.1 0.953194 226.147 0 224.973 0C223.8 0 222.849 0.953194 222.849 2.12655V2.3317C222.827 2.3342 222.807 2.3367 222.779 2.3392C222.442 2.38174 222.757 2.27165 222.419 2.27916C222.549 3.14729 222.517 4.24559 222.329 5.29386C222.314 5.37141 222.296 5.47399 222.419 5.54154C222.502 5.58907 222.694 5.68664 222.849 5.79172V7.60304C222.819 7.67559 222.794 7.74814 222.779 7.8232C222.767 7.88074 222.797 7.92828 222.849 7.96831V20.0046C222.757 20.1872 222.647 20.3698 222.509 20.55C222.534 20.5224 222.489 20.5049 222.329 20.5024C222.329 20.59 222.369 20.56 222.689 20.585C222.594 20.595 222.519 20.605 222.454 20.615C222.652 20.6475 222.564 20.7926 222.509 20.8452C222.462 20.8902 222.382 20.7501 222.417 20.62C221.951 20.7101 222.417 20.8577 222.419 20.9753C222.419 21.1279 222.244 21.3155 222.149 21.4731C221.864 21.9485 221.881 22.4288 221.969 22.9042C222.014 23.1519 222.397 23.4446 222.149 23.6722C222.079 23.7373 222.354 24.1051 222.849 24.3027V24.4278C222.849 26.6544 223.427 28.7484 224.441 30.5723C224.446 30.5848 224.448 30.5973 224.451 30.6098C224.678 31.4004 225.001 32.231 225.324 32.5487C225.294 32.5187 225.661 32.5512 225.641 32.5137C225.744 32.7313 225.716 33.1091 225.997 33.4644C226.442 34.0223 226.975 34.4351 227.535 34.8154C228.096 35.1981 228.686 35.5509 229.317 36.0087C230.205 36.6467 231.238 37.2146 232.334 37.5774C233.425 37.9451 234.568 38.1053 235.586 38.0227C236.384 37.9652 237.272 37.6524 237.54 37.695C238 37.775 238.581 37.3747 239.004 37.2972C239.964 37.1295 240.895 36.7268 241.733 36.1613C242.574 35.5984 243.317 34.8754 243.957 34.0798C244.095 33.9097 244.225 33.7321 244.353 33.5569C246.742 31.2478 248.233 28.0104 248.233 24.4328C248.233 17.4327 242.539 11.736 235.536 11.736L235.544 11.7386ZM236.034 16.0067C236.039 16.0292 236.046 16.0492 236.049 16.0767C236.129 16.4195 235.891 16.0892 235.894 16.4295C236.877 16.4019 238.003 16.6196 239.051 17.145C240.099 17.6654 241.055 18.491 241.713 19.4667C241.813 19.6093 241.933 19.8019 242.118 19.8595C242.246 19.8945 242.526 19.972 242.786 20.1071C243.509 21.313 243.937 22.7115 243.977 24.2051C243.952 24.3778 243.927 24.5529 243.907 24.728C243.89 24.8606 243.912 24.9732 243.957 25.0708C243.629 29.4289 239.982 32.8739 235.541 32.8739C231.1 32.8739 227.097 29.0862 227.097 24.4303C227.097 23.4821 227.258 22.5714 227.548 21.7183C227.773 21.343 228.038 20.9978 228.346 20.7026C228.293 20.7451 228.318 20.8027 228.458 20.8802C228.548 20.7051 228.481 20.7501 228.226 20.5475C228.321 20.575 228.396 20.59 228.463 20.5975C228.323 20.4399 228.566 20.1872 228.681 20.1172C228.776 20.0571 228.671 20.3673 228.503 20.6025C228.719 20.6225 228.796 20.545 228.829 20.4299C228.871 20.2748 228.834 20.0446 228.919 19.9195C229.111 19.6318 229.514 19.4091 229.814 19.2215C230.723 18.6511 231.508 18.0582 232.394 17.5528C232.621 17.4227 232.849 17.2175 233.104 17.0599C233.357 16.9023 233.632 16.7947 233.902 16.8623C234.007 16.8873 234.38 16.6947 234.761 16.422C234.928 16.2969 235.103 16.1543 235.243 15.9942C235.343 15.9916 235.444 15.9866 235.544 15.9866C235.709 15.9866 235.871 15.9916 236.034 16.0017V16.0067Z" fill="#D92CFF"/>
<path d="M270.294 11.7378C263.294 11.7378 257.597 17.4319 257.597 24.4345C257.597 26.6612 258.175 28.7552 259.188 30.579C259.193 30.5915 259.196 30.604 259.198 30.6165C259.426 31.4071 259.749 32.2377 260.072 32.5555C260.042 32.5254 260.409 32.558 260.389 32.5204C260.492 32.7381 260.464 33.1159 260.745 33.4711C261.19 34.029 261.723 34.4418 262.283 34.8221C262.844 35.2049 263.434 35.5576 264.065 36.0155C264.953 36.6534 265.986 37.2214 267.082 37.5841C268.172 37.9519 269.316 38.112 270.334 38.0294C271.132 37.9719 272.02 37.6592 272.288 37.7017C272.748 37.7818 273.329 37.3815 273.752 37.3039C274.712 37.1363 275.643 36.731 276.481 36.1681C277.322 35.6052 278.065 34.8822 278.705 34.0866C278.843 33.9165 278.973 33.7388 279.1 33.5637C281.492 31.2545 282.981 28.0172 282.981 24.4395C282.981 17.4394 277.287 11.7428 270.284 11.7428L270.294 11.7378ZM270.784 16.0059C270.789 16.0284 270.797 16.0484 270.799 16.076C270.879 16.4187 270.642 16.0885 270.644 16.4287C271.628 16.4012 272.753 16.6188 273.802 17.1442C274.85 17.6646 275.806 18.4902 276.464 19.4659C276.564 19.6085 276.681 19.8012 276.869 19.8587C276.996 19.8937 277.277 19.9713 277.537 20.1064C278.26 21.3123 278.688 22.7108 278.728 24.2044C278.703 24.377 278.678 24.5521 278.658 24.7273C278.64 24.8599 278.663 24.9724 278.708 25.07C278.38 29.4282 274.732 32.8732 270.292 32.8732C265.851 32.8732 261.848 29.0854 261.848 24.4295C261.848 23.4813 262.008 22.5707 262.298 21.7176C262.523 21.3423 262.789 20.997 263.096 20.7018C263.044 20.7444 263.069 20.8019 263.209 20.8795C263.299 20.7043 263.231 20.7494 262.976 20.5467C263.071 20.5742 263.146 20.5892 263.214 20.5967C263.074 20.4391 263.316 20.1864 263.432 20.1164C263.527 20.0564 263.422 20.3641 263.254 20.6018C263.469 20.6218 263.547 20.5442 263.579 20.4291C263.622 20.274 263.584 20.0438 263.669 19.9188C263.862 19.631 264.265 19.4084 264.565 19.2207C265.473 18.6503 266.259 18.0574 267.144 17.552C267.372 17.4219 267.6 17.2168 267.855 17.0592C268.107 16.9016 268.383 16.794 268.653 16.8615C268.758 16.8865 269.131 16.6939 269.511 16.4212C269.679 16.2961 269.854 16.1535 269.994 15.9934C270.094 15.9909 270.194 15.9859 270.294 15.9859C270.459 15.9859 270.622 15.9909 270.784 16.0009V16.0059Z" fill="#D92CFF"/>
<path d="M228.181 21.5078C228.231 21.3602 228.519 21.2251 228.231 20.9474C228.338 21.1125 227.803 21.2526 228.181 21.5078Z" fill="#D92CFF"/>
<path d="M228.51 20.6079C228.51 20.6079 228.481 20.6028 228.468 20.6028C228.476 20.6131 228.481 20.6234 228.494 20.6338C228.499 20.626 228.505 20.6183 228.51 20.6105V20.6079Z" fill="#D92CFF"/>
<path d="M262.928 21.5078C262.978 21.3602 263.266 21.2251 262.978 20.9474C263.086 21.1125 262.551 21.2526 262.928 21.5078Z" fill="#D92CFF"/>
<path d="M263.258 20.6079C263.258 20.6079 263.229 20.6054 263.216 20.6028C263.224 20.6131 263.229 20.6234 263.242 20.6338C263.247 20.626 263.253 20.6183 263.258 20.6105V20.6079Z" fill="#D92CFF"/>
<path d="M291.009 21.5078C291.059 21.3602 291.347 21.2251 291.059 20.9474C291.166 21.1125 290.631 21.2526 291.009 21.5078Z" fill="#D92CFF"/>
<path d="M291.338 20.6079C291.325 20.6079 291.31 20.6054 291.297 20.6028C291.305 20.6131 291.31 20.6234 291.323 20.6338C291.328 20.626 291.333 20.6183 291.338 20.6105V20.6079Z" fill="#D92CFF"/>
<path d="M255.393 8.36838C255.385 8.26831 255.595 8.10319 255.213 8.02063C255.385 8.09068 254.947 8.30834 255.393 8.36838Z" fill="#D92CFF"/>
<path d="M255.574 3.2423C255.644 3.14723 255.368 2.60434 254.873 2.31162V2.12649C254.873 0.953133 253.92 -6.10352e-05 252.746 -6.10352e-05C251.573 -6.10352e-05 250.62 0.953133 250.62 2.12649V12.9994C250.437 13.3322 250.21 13.6774 250.262 13.8575C250.257 13.84 250.522 13.9426 250.532 13.9276C250.472 14.0252 250.21 14.1327 250.172 14.3104C250.05 14.8758 250.372 15.3661 250.172 15.9841C249.892 16.8472 249.567 17.7954 249.722 18.581C249.782 18.8862 249.989 19.244 249.902 19.349C249.759 19.5192 250.032 19.7718 249.992 19.942C249.799 20.7801 250.227 21.6557 250.62 22.5714V35.0029C250.62 36.1763 251.573 37.1295 252.746 37.1295C253.92 37.1295 254.873 36.1763 254.873 35.0029V34.7002C254.896 34.6952 254.916 34.6902 254.943 34.6877C255.281 34.6252 254.966 34.7853 255.303 34.7753C255.173 33.4968 255.206 31.8782 255.393 30.3295C255.408 30.2145 255.426 30.0643 255.303 29.9643C255.218 29.8967 255.028 29.7516 254.873 29.594V26.9246C254.903 26.817 254.928 26.7094 254.943 26.5993C254.956 26.5143 254.926 26.4442 254.873 26.3867V8.64624C254.966 8.37604 255.076 8.10835 255.213 7.84315C255.188 7.88318 255.233 7.9082 255.393 7.9132C255.393 7.78311 255.353 7.83064 255.033 7.79061C255.128 7.77811 255.203 7.76309 255.268 7.74808C255.071 7.70055 255.158 7.48789 255.213 7.40784C255.261 7.34029 255.341 7.55044 255.306 7.73808C255.771 7.60548 255.306 7.38532 255.303 7.2152C255.303 6.99003 255.478 6.71483 255.574 6.48216C255.859 5.78165 255.841 5.07364 255.754 4.37313C255.709 4.01036 255.326 3.57755 255.574 3.2398V3.2423Z" fill="#D92CFF"/>
<path d="M255.304 7.75806C255.304 7.75806 255.304 7.74515 255.307 7.73999C255.294 7.74257 255.281 7.74773 255.265 7.75031C255.278 7.75289 255.288 7.75806 255.301 7.76064L255.304 7.75806Z" fill="#D92CFF"/>
<path d="M222.329 20.1989C222.337 20.2665 222.126 20.379 222.509 20.4366C222.337 20.3891 222.774 20.2414 222.329 20.1989Z" fill="#D92CFF"/>
<path d="M222.417 20.6119C222.417 20.6119 222.417 20.6198 222.414 20.625C222.427 20.625 222.44 20.6198 222.453 20.6172C222.44 20.6172 222.43 20.6119 222.417 20.6119Z" fill="#D92CFF"/>
<path d="M302.998 48.9856C302.935 49.0381 302.712 48.9381 302.87 49.2933C302.82 49.1207 303.218 49.3784 302.998 48.9856Z" fill="#D92CFF"/>
<path d="M302.646 49.3302C302.646 49.3302 302.638 49.3328 302.633 49.3355C302.641 49.3434 302.651 49.354 302.659 49.362C302.654 49.3514 302.654 49.3408 302.646 49.3302Z" fill="#D92CFF"/>
<path d="M311.97 41.7749C311.909 41.4522 311.702 41.0744 311.789 40.9643C311.932 40.7842 311.659 40.519 311.699 40.3389C311.892 39.4532 311.464 38.5301 311.071 37.5618V24.4323C311.071 17.4322 305.377 11.7355 298.375 11.7355C291.372 11.7355 285.678 17.4297 285.678 24.4323C285.678 26.6589 286.256 28.7529 287.269 30.5768C287.272 30.5893 287.277 30.6018 287.279 30.6143C287.507 31.4049 287.829 32.2355 288.152 32.5532C288.122 32.5232 288.49 32.5557 288.47 32.5182C288.572 32.7358 288.545 33.1136 288.825 33.4689C289.273 34.0268 289.803 34.4396 290.364 34.8199C290.924 35.2026 291.515 35.5554 292.145 36.0132C293.033 36.6512 294.066 37.2191 295.162 37.5819C296.253 37.9496 297.396 38.1097 298.415 38.0272C299.213 37.9696 300.101 37.6569 300.369 37.6994C300.829 37.7795 301.409 37.3792 301.832 37.3017C302.793 37.134 303.723 36.7287 304.562 36.1658C305.402 35.6029 306.145 34.8799 306.786 34.0843C306.793 34.0743 306.803 34.0618 306.811 34.0518V42.5555C306.811 45.2925 305.5 47.7293 303.473 49.2729C303.241 49.3354 302.998 49.3704 302.745 49.373C302.785 49.3755 302.778 49.3254 302.693 49.1928C302.605 49.2479 302.66 49.2629 302.805 49.5481C302.745 49.4705 302.693 49.413 302.648 49.3654C302.725 49.5556 302.525 49.5756 302.443 49.5581C302.373 49.5431 302.478 49.3905 302.623 49.3404C302.285 49.0027 302.39 49.488 302.262 49.5556C302.105 49.6456 301.827 49.5881 301.627 49.5781C301.019 49.5456 300.549 49.7257 300.051 49.9284C299.803 50.0334 299.52 50.4662 299.228 50.2486C299.173 50.2086 298.973 50.3412 298.775 50.5913C298.685 50.7039 298.595 50.839 298.522 50.9941C298.47 50.9941 298.417 50.9991 298.365 50.9991C297.191 50.9991 296.238 51.9523 296.238 53.1257C296.238 54.299 297.191 55.2522 298.365 55.2522C303.226 55.2522 307.456 52.5052 309.588 48.4798C309.593 48.4748 309.6 48.4698 309.605 48.4648C309.963 48.1796 310.351 47.8619 310.396 47.6242C310.393 47.6467 310.198 47.419 310.181 47.4365C310.283 47.3465 310.579 47.3139 310.699 47.1038C310.884 46.7736 310.944 46.4233 311.001 46.073C311.059 45.7203 311.111 45.365 311.284 44.9848C311.529 44.4544 311.749 43.8689 311.879 43.276C311.909 43.1284 311.937 42.9808 311.957 42.8332C311.975 42.6856 311.99 42.5305 311.995 42.4304C312.007 42.2052 312 41.9876 311.96 41.7799L311.97 41.7749ZM298.867 16.0036C298.872 16.0262 298.88 16.0462 298.882 16.0737C298.963 16.4164 298.725 16.0862 298.727 16.4265C299.711 16.3989 300.836 16.6166 301.885 17.142C302.933 17.6624 303.889 18.488 304.547 19.4637C304.647 19.6063 304.764 19.7989 304.952 19.8565C305.079 19.8915 305.36 19.969 305.62 20.1041C306.343 21.31 306.771 22.7085 306.811 24.2021C306.786 24.3747 306.761 24.5499 306.741 24.725C306.741 24.7375 306.741 24.75 306.741 24.7625C306.415 24.8251 306.723 24.6574 306.385 24.67C306.448 25.3279 306.473 26.0735 306.46 26.854C305.417 30.3316 302.187 32.8709 298.375 32.8709C293.719 32.8709 289.931 29.0832 289.931 24.4273C289.931 23.4791 290.091 22.5684 290.381 21.7153C290.606 21.34 290.872 20.9948 291.179 20.6996C291.127 20.7421 291.152 20.7996 291.292 20.8772C291.382 20.7021 291.314 20.7471 291.059 20.5445C291.154 20.572 291.229 20.587 291.297 20.5945C291.157 20.4369 291.4 20.1842 291.515 20.1141C291.61 20.0541 291.505 20.3618 291.337 20.5995C291.552 20.6195 291.63 20.5419 291.662 20.4269C291.705 20.2718 291.667 20.0416 291.752 19.9165C291.945 19.6288 292.348 19.4061 292.648 19.2185C293.556 18.6481 294.342 18.0551 295.227 17.5498C295.455 17.4197 295.683 17.2145 295.938 17.0569C296.191 16.8993 296.466 16.7917 296.736 16.8593C296.841 16.8843 297.214 16.6916 297.594 16.4189C297.762 16.2939 297.937 16.1513 298.077 15.9911C298.177 15.9886 298.277 15.9836 298.377 15.9836C298.542 15.9836 298.705 15.9886 298.867 15.9986V16.0036Z" fill="#D92CFF"/>
<path d="M17.3858 24.2158C17.3858 26.1399 17.0203 27.9467 16.2962 29.6364C15.5721 31.326 14.579 32.7949 13.3238 34.05C12.0687 35.3052 10.5998 36.2914 8.91014 37.0224C7.22052 37.7465 5.41367 38.112 3.48957 38.112C2.32408 38.112 1.15859 37.9672 0 37.6775V30.2088C0.51723 30.5191 1.07584 30.7536 1.67582 30.9122C2.27581 31.0708 2.88269 31.1536 3.49647 31.1536C4.44817 31.1536 5.3516 30.9743 6.19986 30.6087C7.04811 30.2432 7.78603 29.7467 8.4205 29.1191C9.05497 28.4915 9.54461 27.7536 9.91012 26.9123C10.2756 26.0709 10.4549 25.1744 10.4549 24.2227V3.34729H17.3858V24.2227V24.2158Z" fill="#1D1D1B"/>
<path d="M47.4538 24.8912C47.4538 26.8291 47.109 28.636 46.4125 30.3118C45.7159 31.9876 44.7711 33.429 43.5781 34.6496C42.385 35.8703 40.9781 36.8289 39.3713 37.5323C37.7644 38.2358 36.0403 38.5875 34.1921 38.5875C32.3438 38.5875 30.6473 38.2358 29.0405 37.5323C27.4336 36.8289 26.0267 35.8703 24.8199 34.6496C23.613 33.429 22.6682 31.9807 21.9716 30.3118C21.2751 28.636 20.9303 26.836 20.9303 24.8912C20.9303 22.9465 21.2751 21.0913 21.9716 19.4086C22.6682 17.7259 23.613 16.2776 24.8199 15.057C26.0267 13.8363 27.4267 12.8777 29.0405 12.1812C30.6473 11.4846 32.3645 11.1398 34.1921 11.1398C36.0196 11.1398 37.7575 11.464 39.3713 12.1191C40.9781 12.7743 42.3781 13.7053 43.5781 14.9053C44.7711 16.1121 45.7228 17.5535 46.4125 19.2431C47.109 20.9327 47.4538 22.8085 47.4538 24.8774V24.8912ZM40.785 24.8912C40.785 23.8223 40.6126 22.8568 40.2609 21.9948C39.9161 21.1327 39.4402 20.3879 38.8402 19.7672C38.2402 19.1465 37.5437 18.6707 36.7437 18.3397C35.9438 18.0086 35.0886 17.8431 34.1852 17.8431C33.2817 17.8431 32.4266 18.0086 31.6266 18.3397C30.8266 18.6707 30.1301 19.1465 29.5439 19.7672C28.9508 20.3879 28.4887 21.1327 28.1508 21.9948C27.8129 22.8568 27.6405 23.8223 27.6405 24.8912C27.6405 25.8912 27.8129 26.8222 28.1508 27.6774C28.4887 28.5325 28.9577 29.2773 29.5439 29.9049C30.137 30.5325 30.8266 31.029 31.6266 31.3945C32.4266 31.76 33.2817 31.9394 34.1852 31.9394C35.0886 31.9394 35.9438 31.7669 36.7437 31.429C37.5437 31.0911 38.2402 30.6152 38.8402 30.0015C39.4402 29.3877 39.9092 28.6429 40.2609 27.7739C40.6057 26.8981 40.785 25.9395 40.785 24.8912Z" fill="#1D1D1B"/>
<path d="M77.1019 24.8916C77.1019 26.926 76.7571 28.788 76.0605 30.4707C75.364 32.1535 74.4192 33.5948 73.2261 34.8017C72.0331 36.0085 70.6262 36.9396 69.0193 37.6016C67.4125 38.2637 65.6884 38.5947 63.8401 38.5947C61.9919 38.5947 60.2954 38.2568 58.6885 37.574C57.0817 36.8982 55.6748 35.9465 54.4679 34.7396C53.2611 33.5258 52.3163 32.0845 51.6197 30.4087C50.9232 28.7328 50.5784 26.8984 50.5784 24.8916V1.80933H57.2196V13.9332C57.5782 13.478 58.0058 13.078 58.5161 12.7194C59.0264 12.3608 59.5713 12.0712 60.1644 11.8436C60.7574 11.616 61.3643 11.4436 61.9919 11.3195C62.6195 11.1953 63.2333 11.1402 63.8332 11.1402C65.6746 11.1402 67.3987 11.485 69.0124 12.1677C70.6193 12.8573 72.0193 13.8159 73.2192 15.0435C74.4123 16.2711 75.364 17.7193 76.0537 19.3951C76.7502 21.071 77.095 22.8985 77.095 24.8847L77.1019 24.8916ZM70.4331 24.8916C70.4331 23.8916 70.2607 22.9537 69.909 22.0916C69.5641 21.2296 69.0883 20.4779 68.4883 19.8503C67.8883 19.2227 67.1918 18.7262 66.3918 18.3745C65.5918 18.0159 64.7367 17.8434 63.8332 17.8434C62.9298 17.8434 62.0747 18.0434 61.2747 18.4365C60.4747 18.8296 59.7782 19.3607 59.1782 20.0158C58.5782 20.671 58.1092 21.4227 57.7713 22.2709C57.4334 23.1192 57.261 23.995 57.261 24.8985C57.261 25.8984 57.4334 26.8294 57.7713 27.6846C58.1092 28.5397 58.5782 29.2846 59.1782 29.9121C59.7782 30.5397 60.4747 31.0362 61.2747 31.4018C62.0747 31.7673 62.9298 31.9466 63.8332 31.9466C64.7367 31.9466 65.5918 31.7673 66.3918 31.4018C67.1918 31.0362 67.8883 30.5397 68.4883 29.9121C69.0883 29.2846 69.5572 28.5397 69.909 27.6846C70.2538 26.8294 70.4331 25.8984 70.4331 24.8985V24.8916Z" fill="#1D1D1B"/>
<path d="M95.0184 38.1051H79.8877V31.5121H95.0184C95.4736 31.5121 95.8597 31.3535 96.1839 31.0294C96.508 30.7052 96.6666 30.319 96.6666 29.8639C96.6666 29.4087 96.508 29.0915 96.1839 28.9398C95.8597 28.7949 95.4736 28.7191 95.0184 28.7191H88.1358C86.991 28.7191 85.9151 28.4984 84.9083 28.0639C83.9083 27.6294 83.0324 27.0364 82.2876 26.2846C81.5428 25.5329 80.9566 24.6571 80.5291 23.6571C80.1015 22.6571 79.8877 21.5813 79.8877 20.4296C79.8877 19.2779 80.1015 18.209 80.5291 17.2021C80.9566 16.2021 81.5428 15.3263 82.2876 14.5815C83.0324 13.8367 83.9014 13.2505 84.9083 12.8229C85.9082 12.3953 86.9841 12.1815 88.1358 12.1815H101.542V18.7745H88.1358C87.6806 18.7745 87.2944 18.9331 86.9703 19.2572C86.6462 19.5813 86.4875 19.9675 86.4875 20.4227C86.4875 20.8779 86.6462 21.2917 86.9703 21.6227C87.2944 21.9537 87.6806 22.1192 88.1358 22.1192H95.0184C96.1494 22.1192 97.2183 22.3123 98.2183 22.6916C99.2183 23.0709 100.094 23.6019 100.839 24.2778C101.584 24.9536 102.17 25.7743 102.611 26.726C103.046 27.6777 103.266 28.726 103.266 29.857C103.266 30.988 103.046 32.0776 102.611 33.0707C102.177 34.0638 101.584 34.9396 100.839 35.6913C100.094 36.443 99.2252 37.0361 98.2183 37.4637C97.2183 37.8913 96.1494 38.1051 95.0184 38.1051Z" fill="#1D1D1B"/>
<path d="M135.294 27.6847C135.294 29.126 135.018 30.4708 134.466 31.7328C133.914 32.9949 133.17 34.0983 132.225 35.0431C131.28 35.9879 130.177 36.7396 128.914 37.2845C127.652 37.8362 126.301 38.112 124.866 38.112H107.48V3.34729H124.866C126.308 3.34729 127.652 3.62315 128.914 4.17486C130.177 4.72657 131.28 5.47138 132.225 6.41619C133.17 7.361 133.921 8.46442 134.466 9.72646C135.018 10.9885 135.294 12.3402 135.294 13.7746C135.294 14.4229 135.204 15.085 135.025 15.7608C134.845 16.4367 134.597 17.0918 134.273 17.7263C133.949 18.3538 133.563 18.9331 133.107 19.4504C132.652 19.9676 132.156 20.3952 131.604 20.7331C132.17 21.0434 132.68 21.4572 133.128 21.9813C133.583 22.5055 133.97 23.0848 134.294 23.7123C134.618 24.3399 134.866 25.002 135.032 25.6916C135.204 26.3813 135.287 27.0433 135.287 27.6916L135.294 27.6847ZM114.446 17.2573H124.873C125.356 17.2573 125.811 17.1677 126.232 16.9884C126.652 16.8091 127.018 16.5608 127.335 16.2504C127.652 15.9401 127.894 15.5608 128.073 15.1332C128.252 14.7057 128.342 14.2505 128.342 13.7608C128.342 13.2712 128.252 12.8229 128.073 12.4023C127.894 11.9816 127.646 11.6161 127.335 11.2988C127.025 10.9816 126.652 10.7402 126.232 10.5609C125.811 10.3816 125.356 10.292 124.873 10.292H114.446V17.2504V17.2573ZM114.446 31.1467H124.873C125.356 31.1467 125.811 31.057 126.232 30.8777C126.652 30.6984 127.018 30.4501 127.335 30.1398C127.652 29.8294 127.894 29.457 128.073 29.0364C128.252 28.6157 128.342 28.1605 128.342 27.6778C128.342 27.195 128.252 26.7399 128.073 26.3192C127.894 25.8985 127.646 25.533 127.335 25.2158C127.025 24.8985 126.652 24.6572 126.232 24.4778C125.811 24.2985 125.356 24.2089 124.873 24.2089H114.446V31.1398V31.1467Z" fill="#1D1D1B"/>
<path d="M150.176 31.7532C150.438 31.8359 150.693 31.8842 150.948 31.9118C151.203 31.9394 151.465 31.9463 151.721 31.9463C152.369 31.9463 152.99 31.8566 153.59 31.6773C154.19 31.498 154.748 31.2428 155.272 30.9118C155.796 30.5808 156.265 30.1739 156.679 29.698C157.093 29.2222 157.424 28.6911 157.686 28.1118L162.534 32.9876C161.92 33.8634 161.21 34.6427 160.41 35.3393C159.61 36.0358 158.748 36.622 157.817 37.1116C156.886 37.6013 155.907 37.9668 154.886 38.2151C153.865 38.4633 152.803 38.5875 151.721 38.5875C149.893 38.5875 148.176 38.2496 146.569 37.5668C144.962 36.8841 143.555 35.9393 142.348 34.7324C141.142 33.5255 140.197 32.0773 139.5 30.4015C138.804 28.7256 138.459 26.8912 138.459 24.8843C138.459 22.8775 138.804 20.9534 139.5 19.2569C140.197 17.5604 141.142 16.1121 142.348 14.9191C143.555 13.726 144.962 12.795 146.569 12.1329C148.176 11.4708 149.893 11.1398 151.721 11.1398C152.803 11.1398 153.865 11.2709 154.9 11.526C155.934 11.7881 156.914 12.1536 157.845 12.6432C158.776 13.1329 159.645 13.7191 160.451 14.4225C161.258 15.1259 161.969 15.9121 162.582 16.788L150.169 31.7463L150.176 31.7532ZM153.569 18.1052C153.259 17.9948 152.962 17.919 152.659 17.8845C152.362 17.85 152.052 17.8362 151.728 17.8362C150.824 17.8362 149.969 18.0017 149.169 18.3328C148.369 18.6638 147.672 19.1396 147.086 19.7534C146.493 20.3672 146.031 21.1051 145.693 21.9741C145.355 22.8361 145.183 23.8154 145.183 24.8981C145.183 25.1395 145.197 25.4154 145.217 25.7257C145.245 26.036 145.279 26.3464 145.341 26.6567C145.404 26.9671 145.466 27.2774 145.548 27.567C145.631 27.8567 145.735 28.1187 145.866 28.3394L153.576 18.1052H153.569Z" fill="#1D1D1B"/>
<path d="M190.865 38.1047H189.265L186.693 34.5393C186.065 35.1048 185.396 35.6358 184.693 36.1255C183.989 36.622 183.251 37.0496 182.472 37.4082C181.693 37.7668 180.9 38.0565 180.086 38.2702C179.272 38.484 178.444 38.5875 177.603 38.5875C175.776 38.5875 174.058 38.2771 172.451 37.6634C170.845 37.0496 169.438 36.153 168.231 34.9876C167.024 33.8152 166.079 32.3807 165.383 30.6842C164.686 28.9877 164.341 27.0567 164.341 24.8912C164.341 22.8706 164.686 21.0155 165.383 19.3258C166.079 17.6362 167.024 16.188 168.231 14.9742C169.438 13.7605 170.845 12.8225 172.451 12.1467C174.058 11.4777 175.776 11.1398 177.603 11.1398C178.444 11.1398 179.279 11.2433 180.1 11.4571C180.927 11.664 181.727 11.9605 182.5 12.3329C183.272 12.7053 184.017 13.1398 184.72 13.6432C185.424 14.1467 186.079 14.6846 186.699 15.2708L189.272 12.195H190.872V38.1116L190.865 38.1047ZM184.196 24.8912C184.196 23.9878 184.024 23.112 183.672 22.2637C183.32 21.4155 182.851 20.6637 182.251 20.0086C181.651 19.3534 180.955 18.8293 180.155 18.4293C179.355 18.0362 178.5 17.8362 177.596 17.8362C176.693 17.8362 175.838 17.9879 175.038 18.2983C174.238 18.6086 173.541 19.0569 172.955 19.6569C172.362 20.2569 171.9 20.9948 171.562 21.8775C171.224 22.7603 171.052 23.7671 171.052 24.8981C171.052 26.0291 171.224 27.036 171.562 27.9188C171.9 28.8015 172.369 29.5394 172.955 30.1394C173.548 30.7394 174.238 31.1876 175.038 31.498C175.838 31.8083 176.693 31.96 177.596 31.96C178.5 31.96 179.355 31.76 180.155 31.3669C180.955 30.9739 181.651 30.4428 182.251 29.7877C182.851 29.1325 183.32 28.3808 183.672 27.5326C184.024 26.6843 184.196 25.8085 184.196 24.905V24.8912Z" fill="#1D1D1B"/>
<path d="M202.526 38.1054H195.906V12.1404H197.506L199.685 15.2162C200.754 14.2438 201.961 13.499 203.319 12.9749C204.678 12.4508 206.085 12.1887 207.54 12.1887H213.381V18.7817H207.54C206.843 18.7817 206.188 18.9127 205.574 19.1679C204.961 19.4299 204.43 19.7816 203.974 20.2368C203.519 20.692 203.168 21.223 202.905 21.8368C202.643 22.4506 202.519 23.1057 202.519 23.8022V38.1054H202.526Z" fill="#1D1D1B"/>
</svg>
