<svg width="62" height="39" viewBox="0 0 62 39" fill="none" xmlns="http://www.w3.org/2000/svg">
<path d="M59.9631 0H25.3058C24.6948 0 24.202 0.492739 24.202 1.10374V6.09289H14.2395C11.4289 6.09289 8.8023 7.48438 7.21896 9.8088L1.82511 17.7557C0.633335 19.5138 0 21.5675 0 23.6935V30.8245C0 32.8992 1.68451 34.5851 3.76059 34.5851H3.75927H5.84192C7.04158 37.1828 9.66821 39 12.714 39C15.7598 39 18.3877 37.1893 19.5861 34.5851H42.6253C43.8249 37.1828 46.4515 39 49.4973 39C52.5431 39 55.1711 37.1893 56.3694 34.5851H59.9605C60.5715 34.5851 61.0642 34.0923 61.0642 33.4813V1.10374C61.0642 0.492739 60.5715 0 59.9605 0H59.9631ZM12.7245 36.7912C9.76675 36.7912 7.35299 34.3853 7.35299 31.4197C7.35299 28.4541 9.75887 26.0482 12.7245 26.0482C15.6901 26.0482 18.096 28.4541 18.096 31.4197C18.096 34.3853 15.6901 36.7912 12.7245 36.7912ZM24.202 32.3763H20.2286C20.2654 32.0596 20.2943 31.7429 20.2943 31.4197C20.2943 27.24 16.8951 23.8407 12.7153 23.8407C8.53556 23.8407 5.13632 27.24 5.13632 31.4197C5.13632 31.7429 5.16522 32.0596 5.20202 32.3763H3.7527C2.89862 32.3763 2.19959 31.6772 2.19959 30.8232V23.6922C2.19959 22.0077 2.70021 20.381 3.64233 18.9908L9.03619 11.0439C10.2056 9.32132 12.149 8.29116 14.2303 8.29116H24.1929L24.1994 8.29905V32.375L24.202 32.3763ZM42.0103 32.3763H26.4108V29.6537H42.1575C42.0182 30.22 41.9446 30.8087 41.9446 31.4197C41.9446 31.7429 41.9735 32.0596 42.0103 32.3763ZM49.5223 36.7912C46.5645 36.7912 44.1508 34.3853 44.1508 31.4197C44.1508 28.4541 46.5567 26.0482 49.5223 26.0482C52.4879 26.0482 54.8938 28.4541 54.8938 31.4197C54.8938 34.3853 52.4879 36.7912 49.5223 36.7912ZM58.8817 32.3763H57.0277C57.0645 32.0596 57.0934 31.7429 57.0934 31.4197C57.0934 30.8087 57.0119 30.22 56.8805 29.6537H58.8817V32.3763ZM58.883 27.4462H55.9621C54.6231 25.29 52.2462 23.8407 49.5236 23.8407C46.8011 23.8407 44.4241 25.2834 43.0851 27.4462H26.4122V7.19662H26.4108V2.20747H58.883V27.4462Z" fill="#D92CFF"/>
<path d="M12.7232 27.4461C10.5302 27.4461 8.74976 29.2265 8.74976 31.4196C8.74976 33.6126 10.5302 35.393 12.7232 35.393C14.9162 35.393 16.6967 33.6126 16.6967 31.4196C16.6967 29.2265 14.9162 27.4461 12.7232 27.4461ZM12.7232 33.1855C11.7522 33.1855 10.9572 32.3906 10.9572 31.4196C10.9572 30.4485 11.7522 29.6536 12.7232 29.6536C13.6942 29.6536 14.4892 30.4485 14.4892 31.4196C14.4892 32.3906 13.6942 33.1855 12.7232 33.1855Z" fill="#D92CFF"/>
<path d="M20.6909 10.0219H15.481C13.4654 10.0219 11.6101 11.0297 10.5221 12.7221L6.5631 18.8517C6.34236 19.1894 6.3279 19.6244 6.51843 19.9778C6.71027 20.3313 7.08475 20.552 7.48945 20.552H20.6896C21.3006 20.552 21.7934 20.0593 21.7934 19.4483V11.1256C21.7934 10.5146 21.3006 10.0219 20.6896 10.0219H20.6909ZM19.5951 18.3432H9.52217L12.384 13.9204C13.0686 12.8613 14.2301 12.228 15.4889 12.228H19.5951V18.3419V18.3432Z" fill="#D92CFF"/>
<path d="M49.5224 27.4461C47.3294 27.4461 45.549 29.2265 45.549 31.4196C45.549 33.6126 47.3294 35.393 49.5224 35.393C51.7154 35.393 53.4958 33.6126 53.4958 31.4196C53.4958 29.2265 51.7154 27.4461 49.5224 27.4461ZM49.5224 33.1855C48.5514 33.1855 47.7564 32.3906 47.7564 31.4196C47.7564 30.4485 48.5514 29.6536 49.5224 29.6536C50.4934 29.6536 51.2884 30.4485 51.2884 31.4196C51.2884 32.3906 50.4934 33.1855 49.5224 33.1855Z" fill="#D92CFF"/>
</svg>
