<svg width="97" height="16" viewBox="0 0 97 16" fill="none" xmlns="http://www.w3.org/2000/svg">
<path d="M8.83374 0L10.7232 5.84548H16.8354L11.8898 9.45687L13.7793 15.3023L8.83374 11.6893L3.88814 15.3023L5.77762 9.45687L0.832031 5.84548H6.94426L8.83374 0Z" fill="#FFE754"/>
<path d="M28.8179 1.52588e-05L30.7073 5.8455H36.8196L31.874 9.45688L33.7635 15.3024L28.8179 11.6893L23.8723 15.3024L25.7618 9.45688L20.8162 5.8455H26.9284L28.8179 1.52588e-05Z" fill="#FFE754"/>
<path d="M48.8019 1.52588e-05L50.6896 5.8455H56.8036L51.858 9.45688L53.7475 15.3024L48.8019 11.6893L43.8562 15.3024L45.744 9.45688L40.7985 5.8455H46.9124L48.8019 1.52588e-05Z" fill="#FFE754"/>
<path d="M68.7843 1.52588e-05L70.6738 5.8455H76.7877L71.8404 9.45688L73.7299 15.3024L68.7843 11.6893L63.8387 15.3024L65.7282 9.45688L60.7826 5.8455H66.8948L68.7843 1.52588e-05Z" fill="#FFE754"/>
<path d="M88.7687 1.52588e-05L90.6582 5.8455H96.7704L91.8248 9.45688L93.7143 15.3024L88.7687 11.6893L83.8231 15.3024L85.7125 9.45688L80.767 5.8455H86.8792L88.7687 1.52588e-05Z" fill="#FFE754"/>
</svg>
