<svg width="63" height="62" viewBox="0 0 63 62" fill="none" xmlns="http://www.w3.org/2000/svg">
<path d="M61.0001 34.004H56.8606L53.9886 14.8579C53.9155 14.3688 53.4949 14.0066 53.0001 14.0066V12.7062C53.0001 12.3805 53.1555 12.0731 53.4183 11.8812C53.6503 11.704 53.9543 11.6503 54.2332 11.7372C55.3761 12.0914 56.5978 12.0948 57.7418 11.7475C58.8869 11.4001 59.9006 10.719 60.6538 9.79114C61.9738 8.16963 62.3555 5.97906 61.6595 4.00674C60.9635 2.03556 59.2915 0.568319 57.2458 0.134089C55.7109 -0.189298 54.1109 0.105521 52.7921 0.95227C52.4961 1.1351 52.1166 1.11339 51.8435 0.898563C50.9361 0.28607 49.8538 -0.0156059 48.7612 0.0392442C47.6675 0.0929516 46.6206 0.500899 45.7772 1.1991C45.2412 1.6916 44.5475 1.97842 43.8206 2.00814H41.1806C40.4526 1.97842 39.76 1.6916 39.2229 1.20024C38.1635 0.294069 36.7715 -0.125306 35.3875 0.0461004C34.0035 0.217507 32.7543 0.962555 31.9486 2.10069C31.6595 2.4298 31.1886 2.52807 30.7909 2.34523C30.2115 2.13041 29.5989 2.01613 28.9806 2.00928C28.1806 0.93513 26.9806 0.227791 25.6537 0.0461004C24.3269 -0.135591 22.9817 0.224363 21.9223 1.04483C20.8629 1.8653 20.1772 3.07543 20.0195 4.40554C19.8617 5.73566 20.2469 7.07377 21.0857 8.11707C22.0435 9.31234 23.4915 10.0071 25.0229 10.0071C25.5635 10.7339 26.2926 11.2984 27.1303 11.64C27.9692 11.9817 28.8846 12.0868 29.7795 11.9463C30.096 11.8914 30.4195 11.9783 30.6663 12.1828C30.8812 12.3657 31.0035 12.6342 31.0012 12.9153V14.0066C30.5063 14.0066 30.0857 14.3688 30.0126 14.8579L27.1406 34.004H25.0023V19.006C25.0023 18.7409 24.8972 18.486 24.7097 18.2986C24.5223 18.1112 24.2675 18.0061 24.0023 18.0061H18.0023V1.00826C18.0023 0.743154 17.8972 0.48833 17.7097 0.300925C17.5223 0.11352 17.2674 0.00839098 17.0023 0.00839098H3C2.448 0.00839098 2 0.456334 2 1.00826V34.004H1C0.448001 34.004 0 34.452 0 35.0039V39.0034C0 39.2685 0.105143 39.5233 0.292572 39.7107C0.480001 39.8981 0.734858 40.0033 1 40.0033H2V61.0006C2 61.2657 2.10515 61.5205 2.29257 61.7079C2.48 61.8953 2.73486 62.0005 3 62.0005H59.0001C59.2652 62.0005 59.5201 61.8953 59.7075 61.7079C59.8949 61.5205 60.0001 61.2657 60.0001 61.0006V40.0033H61.0001C61.2652 40.0033 61.5201 39.8981 61.7075 39.7107C61.8949 39.5233 62.0001 39.2685 62.0001 39.0034V35.0039C62.0001 34.7388 61.8949 34.484 61.7075 34.2966C61.5201 34.1092 61.2652 34.004 61.0001 34.004ZM54.8389 34.004H45.1612L47.2618 20.0058H52.7395L54.8389 34.004ZM43.1395 34.004H40.8618L37.9898 14.8579C37.9166 14.3688 37.496 14.0066 37.0012 14.0066V13.0067C37.0012 12.4548 37.4492 12.0069 38.0012 12.0069H46.0012C46.2663 12.0069 46.5212 12.112 46.7086 12.2994C46.8961 12.4868 47.0012 12.7416 47.0012 13.0067V14.0066C46.5063 14.0066 46.0858 14.3688 46.0126 14.8579L43.1406 34.004H43.1395ZM47.5612 18.0061L47.8606 16.0063H52.1383L52.4378 18.0061H47.5601H47.5612ZM29.4629 9.97054C28.8606 10.0528 28.2469 9.9534 27.7017 9.68487C27.1566 9.41633 26.7029 8.99124 26.4 8.46445C26.1577 8.10336 25.7303 7.91366 25.3006 7.97651C24.288 8.0965 23.2857 7.67941 22.656 6.87723C22.0229 6.0819 21.8355 5.01918 22.1589 4.05587C22.4823 3.09143 23.2709 2.35666 24.256 2.10412C24.8949 1.93957 25.5715 1.99214 26.176 2.25496C26.7817 2.51664 27.2823 2.97373 27.6 3.55194C27.8 3.90732 28.1955 4.10501 28.6 4.05244L28.7052 4.03873C29.1623 3.97931 29.6275 4.03873 30.056 4.20785C30.664 4.46382 31.3395 4.50953 31.976 4.33812C32.6126 4.16672 33.1738 3.78848 33.5715 3.26169C34.0526 2.58063 34.7978 2.13498 35.6252 2.03099C36.4526 1.92815 37.2846 2.1784 37.9178 2.72119C38.8138 3.53023 39.9726 3.98845 41.1806 4.01016H43.8206C45.0263 3.98731 46.1841 3.53023 47.0789 2.72233C47.5806 2.30295 48.2058 2.05841 48.8595 2.02642C49.5132 1.99442 50.1601 2.17611 50.7006 2.54521C51.1601 2.87431 51.7086 3.05943 52.2732 3.07543C52.8389 3.09142 53.3955 2.93944 53.8743 2.63777C54.7521 2.0687 55.8206 1.87444 56.8424 2.09841C58.2024 2.39209 59.3121 3.37139 59.7738 4.68322C60.2344 5.9962 59.9795 7.4543 59.1006 8.53301C58.5944 9.14436 57.9189 9.59459 57.1589 9.82542C56.3989 10.0562 55.5875 10.0585 54.8263 9.83342C53.9406 9.5546 52.9749 9.71915 52.2309 10.2756C51.4583 10.847 51.0023 11.7497 51.0012 12.7096V14.01H49.0012V13.0102C49.0012 12.2148 48.6846 11.4515 48.1223 10.8893C47.5601 10.3271 46.7966 10.0105 46.0012 10.0105H38.0012C37.2058 10.0105 36.4423 10.3271 35.88 10.8893C35.3178 11.4515 35.0012 12.2148 35.0012 13.0102V14.01H33.0012V12.9187C33.0023 12.0514 32.624 11.2287 31.9646 10.6653C31.2732 10.0791 30.3589 9.82656 29.464 9.97397L29.4629 9.97054ZM36.4389 18.0061H31.5612L31.8606 16.0063H36.1383L36.4378 18.0061H36.4389ZM31.2606 20.0058H36.7383L38.8389 34.004H29.1612L31.2617 20.0058H31.2606ZM22.9989 20.0058V34.004H8.99887V20.0058H22.9989ZM10.9989 18.0061V16.0063H15.9989V18.0061H10.9989ZM4.00115 2.00814H16.0012V14.0066H10.0012C9.44915 14.0066 9.00115 14.4545 9.00115 15.0065V18.0061H8.00115C7.44915 18.0061 7.00115 18.454 7.00115 19.006V34.004H4.00115V2.00814ZM16.0012 60.0007H10.0012V48.0022H16.0012V60.0007ZM28.0012 60.0007H22.0012V48.0022H28.0012V60.0007ZM58.0012 60.0007H30.0012V47.0024C30.0012 46.7373 29.896 46.4824 29.7086 46.295C29.5212 46.1076 29.2663 46.0025 29.0012 46.0025H21.0012C20.4492 46.0025 20.0012 46.4504 20.0012 47.0024V60.0007H18.0012V47.0024C18.0012 46.7373 17.896 46.4824 17.7086 46.295C17.5212 46.1076 17.2663 46.0025 17.0012 46.0025H9.00115C8.44915 46.0025 8.00115 46.4504 8.00115 47.0024V60.0007H4.00115V40.0033H58.0012V60.0007ZM60.0012 38.0035H2.00115V36.0038H60.0012V38.0035Z" fill="#D92CFF"/>
</svg>
