<svg width="13" height="20" viewBox="0 0 13 20" fill="none" xmlns="http://www.w3.org/2000/svg">
<path d="M6.50004 0.289429C2.90608 0.289429 0.000244141 3.31438 0.000244141 7.01245C0.000244141 8.34588 0.357982 9.79191 1.0233 10.8666L6.10872 19.0746C6.1937 19.2083 6.34169 19.2894 6.50045 19.2894C6.65922 19.2894 6.80679 19.2083 6.89218 19.0746L11.9776 10.8666C12.6421 9.79191 13.0007 8.34588 13.0007 7.01204C13.0002 3.31396 10.0944 0.289429 6.50045 0.289429H6.50004ZM6.50004 1.21674C9.57252 1.21674 12.0713 3.79666 12.0713 7.01245C12.0713 8.17077 11.7285 9.5042 11.1863 10.3814L6.50004 17.9593L1.8138 10.381C1.2716 9.50461 0.928786 8.17036 0.928786 7.01204C0.928786 3.79625 3.42714 1.21633 6.50004 1.21633V1.21674ZM6.50004 3.53503C4.71052 3.53503 3.25014 4.99348 3.25014 6.78063C3.25014 8.56778 4.71052 10.0262 6.50004 10.0262C8.28955 10.0262 9.74993 8.56778 9.74993 6.78063C9.74993 4.99348 8.28955 3.53503 6.50004 3.53503ZM6.50004 4.46234C7.78756 4.46234 8.82139 5.49481 8.82139 6.78063C8.82139 8.06645 7.78756 9.09891 6.50004 9.09891C5.21251 9.09891 4.17868 8.06645 4.17868 6.78063C4.17868 5.49481 5.21251 4.46234 6.50004 4.46234Z" fill="#B2B2B2"/>
</svg>
