<svg width="65" height="64" viewBox="0 0 65 64" fill="none" xmlns="http://www.w3.org/2000/svg">
<path d="M63.8079 50.8275H60.6175V17.0825C60.6175 11.725 56.0284 7.365 50.3863 7.365H41.9152C41.4097 5.495 39.4635 4.05 36.4722 3.3525C35.9561 1.0575 34.0911 0 32.4278 0C30.7645 0 28.8995 1.0575 28.3835 3.3525C25.3922 4.05 23.4512 5.495 22.9431 7.365H14.4642C8.82205 7.365 4.23291 11.725 4.23291 17.0825V50.8275H1.04775C0.468868 50.8275 0 51.275 0 51.8275V55.4425C0 55.995 0.468868 56.4425 1.04775 56.4425H7.625C7.03302 57.2275 6.6794 58.185 6.6794 59.22C6.6794 61.855 8.93468 63.9975 11.706 63.9975C14.4773 63.9975 16.7326 61.855 16.7326 59.22C16.7326 58.1825 16.3789 57.225 15.787 56.4425H49.0635C48.4715 57.2275 48.1179 58.185 48.1179 59.22C48.1179 61.855 50.3732 63.9975 53.1445 63.9975C55.9158 63.9975 58.171 61.855 58.171 59.22C58.171 58.1825 57.8174 57.225 57.2254 56.4425H63.8027C64.3816 56.4425 64.8504 55.995 64.8504 55.4425V51.8275C64.8504 51.275 64.3816 50.8275 63.8027 50.8275H63.8079ZM32.4278 2C33.0198 2 33.7035 2.2775 34.1252 2.9825C33.858 2.96 33.5882 2.9425 33.3184 2.93C33.3079 2.93 33.2949 2.93 33.2844 2.93C33.0015 2.9175 32.716 2.9125 32.4305 2.9125C32.1449 2.9125 31.8594 2.9175 31.5765 2.93C31.5504 2.93 31.5242 2.935 31.4953 2.935C31.2386 2.9475 30.9846 2.9625 30.7357 2.985C31.1548 2.2775 31.8385 2.0025 32.4331 2.0025L32.4278 2ZM29.5046 5.165C30.4319 4.995 31.4141 4.91 32.4278 4.91C33.4415 4.91 34.4238 4.995 35.3511 5.165C36.2495 5.33 38.8243 5.92 39.6756 7.365H25.18C26.0313 5.92 28.6088 5.33 29.5046 5.165ZM6.32841 17.0825C6.32841 12.8275 9.97719 9.365 14.4642 9.365H50.3836C54.8706 9.365 58.5194 12.8275 58.5194 17.0825V50.8275H54.1922V26.8475C54.1922 26.295 53.7233 25.8475 53.1445 25.8475H39.6495C39.1727 22.305 36.1762 20.4575 33.211 20.4575C30.2459 20.4575 27.2493 22.305 26.7726 25.8475H12.8009C12.222 25.8475 11.7531 26.295 11.7531 26.8475V50.8275H6.32317V17.0825H6.32841ZM16.8059 28.17C16.8007 28.1875 16.7954 28.2025 16.7902 28.22C16.7614 28.325 16.7273 28.4275 16.6906 28.5275C16.6775 28.56 16.6671 28.5925 16.654 28.625C16.6173 28.7175 16.5806 28.805 16.5387 28.8925C16.5282 28.9125 16.5204 28.935 16.5099 28.9525C16.4575 29.055 16.4025 29.1525 16.3449 29.2475C16.3292 29.2725 16.3135 29.295 16.2977 29.3175C16.2506 29.39 16.2008 29.46 16.1484 29.5275C16.1301 29.5525 16.1118 29.5775 16.0908 29.6C16.0201 29.6825 15.9494 29.765 15.8708 29.84C15.8655 29.845 15.8603 29.85 15.8551 29.855C15.7817 29.925 15.7031 29.9925 15.6219 30.055C15.5957 30.075 15.5722 30.0925 15.546 30.1125C15.4753 30.165 15.4019 30.2125 15.3286 30.26C15.3076 30.2725 15.2867 30.2875 15.2631 30.3C15.1662 30.3575 15.0666 30.4075 14.9619 30.4575C14.9383 30.4675 14.9121 30.4775 14.8885 30.49C14.8047 30.5275 14.7156 30.5625 14.624 30.595C14.5925 30.6075 14.5585 30.6175 14.5244 30.63C14.4144 30.665 14.3044 30.7 14.1865 30.7275C14.1787 30.7275 14.1708 30.7325 14.163 30.735C14.0608 30.76 13.956 30.78 13.8486 30.7975V27.8525H16.874C16.8504 27.9625 16.8269 28.07 16.8007 28.175L16.8059 28.17ZM13.8539 48C13.9298 48.015 14.0058 48.03 14.0791 48.05C14.0975 48.055 14.1158 48.0575 14.1315 48.0625C14.252 48.095 14.3673 48.1325 14.4825 48.1725C14.5139 48.1825 14.5428 48.195 14.5742 48.2075C14.6633 48.2425 14.7523 48.2775 14.8361 48.3175C14.8623 48.33 14.8885 48.34 14.9121 48.3525C15.0169 48.4025 15.1164 48.4575 15.2133 48.515C15.2343 48.5275 15.2552 48.54 15.2736 48.555C15.3521 48.6025 15.4281 48.655 15.5015 48.7075C15.525 48.725 15.5512 48.7425 15.5748 48.7625C15.6639 48.83 15.7477 48.9 15.8289 48.9775C15.8341 48.9825 15.8393 48.9875 15.8446 48.9925C15.9206 49.065 15.9913 49.14 16.0594 49.2175C16.0803 49.24 16.0987 49.265 16.1196 49.2875C16.1799 49.36 16.2375 49.435 16.2899 49.51C16.3004 49.525 16.3135 49.54 16.3239 49.555C16.3868 49.6475 16.4444 49.7425 16.4968 49.84C16.5099 49.865 16.523 49.89 16.5361 49.9175C16.578 49.9975 16.6173 50.0825 16.654 50.1675C16.6645 50.1925 16.6775 50.22 16.688 50.245C16.7326 50.3525 16.7718 50.4625 16.8059 50.5775C16.8111 50.5975 16.8164 50.62 16.8242 50.64C16.8426 50.7025 16.8557 50.765 16.8714 50.83H13.8512V48.005L13.8539 48ZM19.0166 50.825C19.0009 50.7375 18.98 50.6525 18.9616 50.565C18.9485 50.5075 18.9381 50.4475 18.925 50.39C18.8831 50.21 18.8333 50.0325 18.7783 49.8625C18.7783 49.855 18.773 49.8475 18.7704 49.84C18.7154 49.6775 18.6552 49.5175 18.5871 49.365C18.5635 49.3125 18.5399 49.2625 18.5137 49.21C18.464 49.1025 18.409 48.995 18.3539 48.89C18.3225 48.835 18.2911 48.78 18.2597 48.725C18.202 48.6275 18.1392 48.53 18.0763 48.4375C18.0422 48.3875 18.0082 48.3375 17.9741 48.29C17.8982 48.185 17.817 48.085 17.7358 47.9875C17.7096 47.955 17.6834 47.9225 17.6546 47.89C17.5419 47.7625 17.4241 47.6425 17.2983 47.525C17.2695 47.4975 17.2381 47.475 17.2093 47.4475C17.1124 47.36 17.0102 47.275 16.9054 47.195C16.8583 47.1575 16.8085 47.125 16.7614 47.09C16.6671 47.0225 16.5728 46.9575 16.4759 46.895C16.4235 46.8625 16.3685 46.8275 16.3135 46.795C16.2087 46.735 16.1039 46.6775 15.9939 46.6225C15.9415 46.5975 15.8917 46.57 15.8393 46.545C15.69 46.475 15.5381 46.41 15.3783 46.35C15.3652 46.345 15.3521 46.3375 15.3391 46.3325C15.1662 46.2675 14.9881 46.2125 14.8073 46.1625C14.7523 46.1475 14.6947 46.135 14.6371 46.12C14.5087 46.0875 14.3777 46.0575 14.2442 46.03C14.1734 46.015 14.1027 46.005 14.032 45.9925C13.9717 45.9825 13.9115 45.97 13.8486 45.96V32.82C13.922 32.81 13.9901 32.795 14.0608 32.785C14.1315 32.7725 14.2049 32.7625 14.2756 32.75C14.4196 32.7225 14.5611 32.69 14.6999 32.6575C14.7497 32.645 14.8021 32.635 14.8518 32.6225C15.0378 32.5725 15.2159 32.5175 15.3888 32.455C15.4255 32.4425 15.4595 32.425 15.4962 32.4125C15.6324 32.36 15.766 32.305 15.8944 32.245C15.9494 32.22 16.0018 32.19 16.0568 32.165C16.1642 32.1125 16.2663 32.055 16.3685 31.995C16.4235 31.9625 16.4759 31.93 16.5282 31.8975C16.6278 31.835 16.7247 31.7675 16.819 31.6975C16.8635 31.665 16.9107 31.6325 16.9552 31.5975C17.0731 31.505 17.1857 31.4075 17.2957 31.305C17.3114 31.29 17.3272 31.2775 17.3429 31.265C17.466 31.1475 17.5812 31.0225 17.6912 30.8925C17.7227 30.855 17.7515 30.815 17.7829 30.7775C17.8589 30.6825 17.9322 30.585 18.003 30.485C18.037 30.435 18.0711 30.3825 18.1051 30.33C18.168 30.2325 18.2256 30.135 18.2832 30.0325C18.3147 29.9775 18.3435 29.9225 18.3723 29.8675C18.4299 29.755 18.4823 29.6375 18.5347 29.5175C18.5556 29.47 18.5766 29.425 18.5975 29.375C18.6657 29.205 18.7285 29.0325 18.7809 28.8525C18.7888 28.825 18.794 28.7975 18.8019 28.77C18.8464 28.615 18.8883 28.4575 18.9224 28.2925C18.9354 28.2275 18.9485 28.1625 18.959 28.0975C18.9747 28.015 18.9931 27.935 19.0062 27.85H46.9051C46.9156 27.925 46.9313 27.995 46.9444 28.0675C46.9549 28.135 46.968 28.2025 46.9811 28.2675C47.0099 28.4125 47.0439 28.5525 47.0832 28.6925C47.0963 28.7375 47.1042 28.7825 47.1173 28.825C47.1697 29.005 47.2299 29.1775 47.2954 29.345C47.3111 29.3875 47.3321 29.425 47.3478 29.4675C47.4002 29.5925 47.4552 29.715 47.5154 29.835C47.5442 29.89 47.5731 29.945 47.6045 29.9975C47.6595 30.1 47.7197 30.1975 47.78 30.295C47.814 30.3475 47.8481 30.4025 47.8848 30.455C47.9502 30.5525 48.021 30.645 48.0943 30.735C48.1284 30.7775 48.1624 30.8225 48.1991 30.865C48.3065 30.99 48.4165 31.11 48.5344 31.2225C48.5396 31.2275 48.5448 31.2325 48.5501 31.2375C48.6732 31.355 48.8042 31.465 48.9404 31.5725C48.9849 31.6075 49.0294 31.6375 49.0766 31.6725C49.1735 31.7425 49.2704 31.81 49.3726 31.875C49.4276 31.91 49.4826 31.9425 49.5402 31.975C49.6397 32.035 49.7445 32.09 49.8493 32.1425C49.9069 32.1725 49.9645 32.2 50.0222 32.2275C50.1427 32.285 50.271 32.3375 50.3967 32.385C50.4439 32.4025 50.4858 32.4225 50.5329 32.44C50.7084 32.5025 50.8892 32.56 51.0752 32.6125C51.1197 32.625 51.1695 32.635 51.2166 32.645C51.3607 32.6825 51.5074 32.715 51.6593 32.7425C51.73 32.755 51.8033 32.7675 51.8767 32.78C51.9526 32.7925 52.026 32.8075 52.102 32.8175V45.91C52.0129 45.92 51.9265 45.935 51.84 45.9475C51.7693 45.9575 51.6959 45.9675 51.6278 45.9775C51.4576 46.005 51.2952 46.04 51.1328 46.075C51.0987 46.0825 51.0621 46.0875 51.028 46.0975C50.8368 46.145 50.6508 46.1975 50.4727 46.2575C50.4203 46.275 50.3732 46.295 50.3208 46.3125C50.195 46.3575 50.0719 46.405 49.9541 46.455C49.8938 46.4825 49.8362 46.51 49.7759 46.5375C49.6712 46.5875 49.569 46.64 49.4695 46.695C49.4119 46.7275 49.3568 46.7575 49.3018 46.7925C49.2023 46.8525 49.1054 46.9175 49.0111 46.985C48.9666 47.0175 48.9194 47.0475 48.8749 47.08C48.7413 47.1825 48.6129 47.2875 48.4925 47.4025C48.4872 47.4075 48.482 47.4125 48.4767 47.4175C48.3615 47.5275 48.2515 47.645 48.1493 47.7675C48.1126 47.81 48.0812 47.855 48.0472 47.8975C47.9764 47.9875 47.9083 48.0775 47.8428 48.1725C47.8088 48.225 47.7747 48.2775 47.7407 48.3325C47.6831 48.4275 47.6254 48.525 47.5731 48.6225C47.5442 48.6775 47.5128 48.7325 47.4866 48.79C47.4316 48.9025 47.3818 49.02 47.3321 49.14C47.3137 49.1875 47.2928 49.2325 47.2744 49.28C47.2116 49.45 47.154 49.625 47.1042 49.805C47.0963 49.8375 47.0885 49.875 47.0806 49.9075C47.0413 50.0575 47.0073 50.2125 46.9758 50.3725C46.9627 50.4375 46.9549 50.505 46.9444 50.5725C46.9313 50.655 46.9156 50.735 46.9051 50.82H19.0193L19.0166 50.825ZM28.8943 25.845C29.3265 23.5125 31.2779 22.455 33.2163 22.455C35.1546 22.455 37.106 23.5125 37.5382 25.845H28.8969H28.8943ZM52.0993 30.7925C51.9867 30.7725 51.8741 30.75 51.7667 30.725C51.7483 30.72 51.73 30.715 51.7117 30.71C51.6043 30.6825 51.4995 30.6525 51.3973 30.6175C51.3633 30.605 51.3266 30.595 51.2926 30.5825C51.1983 30.55 51.1092 30.5125 51.0201 30.475C50.9966 30.465 50.973 30.455 50.952 30.445C50.8447 30.395 50.7451 30.3425 50.6456 30.2875C50.622 30.2725 50.5984 30.2575 50.5749 30.2425C50.4989 30.1975 50.4282 30.1475 50.3574 30.0975C50.3313 30.0775 50.3051 30.06 50.2815 30.04C50.195 29.975 50.1138 29.905 50.0353 29.8325C50.0353 29.8325 50.03 29.83 50.03 29.8275C49.9514 29.7525 49.8781 29.67 49.8074 29.5875C49.7864 29.5625 49.7681 29.5375 49.7471 29.5125C49.6947 29.445 49.645 29.3775 49.5978 29.305C49.5821 29.2825 49.5664 29.2575 49.5507 29.235C49.4931 29.1425 49.438 29.045 49.3857 28.9425C49.3752 28.9225 49.3673 28.9 49.3568 28.88C49.3176 28.795 49.2783 28.7075 49.2442 28.6175C49.2311 28.585 49.218 28.55 49.2075 28.5175C49.1735 28.4225 49.1421 28.325 49.1159 28.2225C49.1106 28.2025 49.1028 28.1825 49.0975 28.1625C49.0713 28.06 49.0504 27.9525 49.0294 27.8425H52.0993V30.79V30.7925ZM49.0871 50.4775C49.0949 50.45 49.1028 50.4225 49.108 50.395C49.1316 50.3 49.1604 50.2075 49.1892 50.1175C49.1997 50.0825 49.2128 50.05 49.2233 50.015C49.2573 49.9225 49.2914 49.8325 49.3307 49.745C49.3385 49.7275 49.3464 49.7075 49.3542 49.69C49.4014 49.59 49.4538 49.4925 49.5114 49.4025C49.5271 49.3775 49.5428 49.3525 49.5585 49.33C49.6031 49.2625 49.6502 49.195 49.7 49.1325C49.7183 49.1075 49.7393 49.0825 49.7576 49.0575C49.8231 48.98 49.8886 48.9075 49.9619 48.8375C49.9672 48.8325 49.9698 48.83 49.9724 48.825C50.0484 48.7525 50.1322 48.685 50.216 48.6225C50.2396 48.605 50.2658 48.5875 50.292 48.57C50.3601 48.5225 50.4282 48.48 50.5015 48.4375C50.5277 48.4225 50.5539 48.405 50.5801 48.3925C50.677 48.34 50.7792 48.29 50.8866 48.245C50.8997 48.24 50.9128 48.235 50.9232 48.23C51.0202 48.19 51.1223 48.155 51.2271 48.1225C51.2611 48.1125 51.2978 48.1 51.3319 48.09C51.4262 48.0625 51.5231 48.0375 51.6226 48.015C51.654 48.0075 51.6855 48 51.7169 47.9925C51.8374 47.9675 51.9631 47.945 52.0915 47.9275V50.8225H49.0111C49.032 50.7025 49.053 50.5875 49.0792 50.475L49.0871 50.4775ZM14.6397 59.22C14.6397 60.7525 13.3248 61.9975 11.7086 61.9975C10.0924 61.9975 8.77752 60.75 8.77752 59.22C8.77752 57.69 10.0924 56.4425 11.7086 56.4425C13.3248 56.4425 14.6397 57.6875 14.6397 59.22ZM56.0808 59.22C56.0808 60.7525 54.7659 61.9975 53.1497 61.9975C51.5336 61.9975 50.2186 60.75 50.2186 59.22C50.2186 57.69 51.5336 56.4425 53.1497 56.4425C54.7659 56.4425 56.0808 57.6875 56.0808 59.22ZM62.7602 54.4425H2.0955V52.8275H62.7602V54.4425Z" fill="#D92CFF"/>
</svg>
