<svg width="52" height="47" viewBox="0 0 52 47" fill="none" xmlns="http://www.w3.org/2000/svg">
<path d="M45.6875 9.879H39.5128V6.17464C39.5128 4.53731 38.863 2.96666 37.7041 1.80879C36.5462 0.650909 34.9766 0 33.3382 0H18.5208C16.8834 0 15.3128 0.650909 14.1549 1.80879C12.997 2.96666 12.3461 4.53731 12.3461 6.17464V9.879H6.17147C4.53414 9.879 2.96349 10.5289 1.80561 11.6878C0.649851 12.8446 0 14.4142 0 16.0526V40.748C0 42.3853 0.649851 43.956 1.80879 45.1138C2.96666 46.2717 4.53731 46.9226 6.17464 46.9226H45.6885C47.3259 46.9226 48.8965 46.2717 50.0544 45.1138C51.2123 43.956 51.8632 42.3853 51.8632 40.748V16.0526C51.8632 14.4153 51.2133 12.8446 50.0544 11.6867C48.8965 10.5289 47.3259 9.87795 45.6885 9.87795L45.6875 9.879ZM14.8174 6.17464C14.8174 5.1914 15.208 4.24943 15.9023 3.55513C16.5977 2.86083 17.5396 2.47028 18.5218 2.47028H33.3393C34.3214 2.47028 35.2634 2.86083 35.9588 3.55513C36.6531 4.24943 37.0436 5.1914 37.0436 6.17464V9.879H14.8174V6.17464ZM9.87795 44.4534H6.17358C5.1914 44.4534 4.24943 44.0629 3.55407 43.3686C2.85871 42.6742 2.46922 41.7323 2.46922 40.749V16.0536C2.46922 15.0715 2.85977 14.1295 3.55407 13.4341C4.24837 12.7398 5.19034 12.3493 6.17358 12.3493H9.87795V44.4534ZM39.5128 44.4534H12.3482V12.3482H39.5139V44.4523L39.5128 44.4534ZM49.3897 40.749C49.3897 41.7312 48.9992 42.6732 48.3049 43.3686C47.6106 44.0629 46.6675 44.4534 45.6854 44.4534H41.981V12.3482H45.6854C46.6675 12.3482 47.6095 12.7388 48.3049 13.4331C49.0002 14.1284 49.3897 15.0704 49.3897 16.0526V40.748V40.749ZM18.5208 29.636V27.1667C18.5208 26.4851 19.0732 25.9316 19.7559 25.9316H23.4603V22.2272C23.4603 21.5456 24.0127 20.9931 24.6943 20.9931H27.1646C27.4917 20.9931 27.806 21.1233 28.0378 21.3541C28.2696 21.5858 28.3987 21.9002 28.3987 22.2272V25.9316H32.1031C32.4301 25.9316 32.7444 26.0618 32.9762 26.2936C33.208 26.5253 33.3382 26.8397 33.3382 27.1667V29.636C33.3382 29.963 33.208 30.2773 32.9762 30.5091C32.7444 30.7409 32.4301 30.8711 32.1031 30.8711H28.3987V34.5755C28.3987 34.9025 28.2685 35.2168 28.0378 35.4486C27.806 35.6804 27.4917 35.8106 27.1646 35.8106H24.6943C24.0127 35.8106 23.4603 35.2571 23.4603 34.5755V30.8711H19.7559C19.0732 30.8711 18.5208 30.3186 18.5208 29.636Z" fill="#D92CFF"/>
</svg>
