<svg width="59" height="58" viewBox="0 0 59 58" fill="none" xmlns="http://www.w3.org/2000/svg">
<path d="M58.0117 38.2533C57.5955 37.0283 56.6017 36.1402 55.2115 35.7498C53.717 35.3298 51.7722 35.4643 49.4333 36.1468L38.7849 39.2584C38.2402 38.1493 37.2344 37.27 35.9452 36.9266L28.3792 34.9076C22.8569 31.0545 19.8985 32.1613 15.5478 34.2809C13.4658 35.2948 11.3981 36.2747 9.44236 37.1956L9.03277 36.2157C8.48811 34.9142 6.9826 34.2952 5.67475 34.8354L1.58869 36.5263C0.9452 36.7921 0.464229 37.2722 0.198486 37.9142C-0.0672557 38.5551 -0.0661576 39.2321 0.201781 39.873L7.12206 56.4251C7.53275 57.4072 8.4903 58 9.49836 58C9.8267 58 10.1594 57.9377 10.4801 57.8042L14.5661 56.1145C15.2096 55.8487 15.6906 55.3686 15.9563 54.7266C16.2221 54.0846 16.221 53.4076 15.953 52.7666L15.4896 51.6576L18.1526 50.3671C19.1255 49.8957 20.1028 49.8126 21.1427 50.1133L29.6432 52.572C30.2691 52.7535 30.9159 52.8301 31.5725 52.8301C33.8313 52.8301 36.2011 51.9125 38.193 51.1403C38.3687 51.0725 38.5411 51.0058 38.7091 50.9413L54.6636 44.8176C57.2463 43.8267 58.8419 40.6988 58.0106 38.2543L58.0117 38.2533ZM14.4311 54.0988C14.3311 54.3405 14.1774 54.4947 13.9336 54.5953L9.84756 56.2851C9.37977 56.4787 8.8417 56.2566 8.64623 55.7907L1.72486 39.2387C1.62493 38.9991 1.62493 38.7771 1.72376 38.5376C1.82259 38.2981 1.98072 38.1406 2.2212 38.0411L6.30836 36.3502C6.42256 36.3032 6.54226 36.2802 6.65976 36.2802C7.02103 36.2802 7.36364 36.4924 7.50969 36.8435L14.43 53.3955C14.531 53.635 14.531 53.8582 14.4322 54.0977L14.4311 54.0988ZM54.0717 43.2832L38.1173 49.4068C37.9471 49.4713 37.7736 49.5391 37.5957 49.608C35.2578 50.5147 32.3489 51.6423 30.1055 50.9927L21.605 48.534C20.1753 48.1206 18.7719 48.2398 17.4333 48.8884L14.856 50.1363L10.0793 38.7126C12.0603 37.7797 14.1587 36.7855 16.2737 35.7552C20.3411 33.7745 22.6888 32.9007 27.548 36.3327C27.6281 36.3885 27.7171 36.4311 27.8115 36.4552L35.5191 38.5125C37.0071 38.9095 37.8922 40.4374 37.4935 41.9182C37.0949 43.3991 35.5609 44.2817 34.074 43.8847L23.8298 41.1505C23.3905 41.0323 22.9381 41.2926 22.8195 41.7312C22.702 42.1698 22.9634 42.6193 23.4026 42.7374L33.6469 45.4717C36.0122 46.1027 38.4533 44.6995 39.088 42.3426C39.2242 41.8395 39.2659 41.332 39.2253 40.8399L49.8989 37.7217C53.426 36.6914 55.8737 37.0863 56.4502 38.7771C56.9948 40.3794 55.8177 42.6095 54.0728 43.2799L54.0717 43.2832ZM29.115 30.9955C37.6945 30.9955 44.6752 24.0428 44.6752 15.4977C44.6752 6.95265 37.6945 0 29.115 0C20.5344 0 13.5548 6.95265 13.5548 15.4988C13.5548 24.045 20.5355 30.9955 29.115 30.9955ZM29.115 1.64492C36.7842 1.64492 43.0236 7.85933 43.0236 15.4977C43.0236 23.1361 36.7842 29.3505 29.115 29.3505C21.4458 29.3505 15.2063 23.1361 15.2063 15.4977C15.2063 7.85933 21.4447 1.64492 29.115 1.64492ZM29.115 27.8893C35.9749 27.8893 41.5554 22.3312 41.5554 15.4988C41.5554 8.66648 35.9749 3.1083 29.115 3.1083C22.2551 3.1083 16.6745 8.66648 16.6745 15.4988C16.6745 22.3312 22.2551 27.8893 29.115 27.8893ZM29.115 4.75213C35.0645 4.75213 39.905 9.57316 39.905 15.4988C39.905 21.4245 35.0645 26.2455 29.115 26.2455C23.1654 26.2455 18.325 21.4245 18.325 15.4988C18.325 9.57316 23.1643 4.75213 29.115 4.75213ZM27.66 15.4988C27.66 15.0056 27.9092 14.5692 28.2892 14.3078V10.4798C28.2892 10.0259 28.6593 9.65846 29.1139 9.65846C29.5685 9.65846 29.9386 10.027 29.9386 10.4798V14.3078C30.2878 14.5484 30.526 14.9378 30.5623 15.3829L32.663 16.5903C33.0572 16.8178 33.1922 17.3198 32.9649 17.7136C32.8123 17.9771 32.5345 18.1248 32.249 18.1248C32.1084 18.1248 31.9668 18.0887 31.8372 18.0143L29.7354 16.8058C29.5465 16.8955 29.3357 16.948 29.1128 16.948C28.3123 16.948 27.6589 16.2972 27.6589 15.4988H27.66ZM28.2892 7.17686V6.60048C28.2892 6.14659 28.6593 5.77911 29.1139 5.77911C29.5685 5.77911 29.9386 6.14769 29.9386 6.60048V7.17686C29.9386 7.63074 29.5685 7.99823 29.1139 7.99823C28.6593 7.99823 28.2892 7.63074 28.2892 7.17795V7.17686ZM34.4386 10.1955C34.1169 9.87502 34.1169 9.35332 34.4386 9.03287L34.8482 8.62492C35.1699 8.30446 35.6937 8.30446 36.0155 8.62492C36.3372 8.94537 36.3372 9.46707 36.0155 9.78752L35.6059 10.1955C35.4445 10.3562 35.2336 10.4361 35.0228 10.4361C34.812 10.4361 34.6 10.3562 34.4386 10.1955ZM36.6447 15.4988C36.6447 15.0449 37.0148 14.6775 37.4694 14.6775H38.0481C38.5038 14.6775 38.8728 15.046 38.8728 15.4988C38.8728 15.9516 38.5027 16.3202 38.0481 16.3202H37.4694C37.0137 16.3202 36.6447 15.9527 36.6447 15.4988ZM36.0155 21.209C36.3372 21.5295 36.3372 22.0512 36.0155 22.3716C35.8541 22.5324 35.6432 22.6122 35.4324 22.6122C35.2215 22.6122 35.0107 22.5324 34.8493 22.3716L34.4397 21.9637C34.118 21.6432 34.118 21.1215 34.4397 20.8011C34.7614 20.4806 35.2852 20.4806 35.607 20.8011L36.0155 21.209ZM29.9396 23.8197V24.3961C29.9396 24.85 29.5696 25.2174 29.115 25.2174C28.6604 25.2174 28.2903 24.8489 28.2903 24.3961V23.8197C28.2903 23.3658 28.6604 22.9983 29.115 22.9983C29.5696 22.9983 29.9396 23.3658 29.9396 23.8197ZM23.7891 20.8011C24.1109 21.1215 24.1109 21.6432 23.7891 21.9637L23.3796 22.3716C23.2192 22.5313 23.0073 22.6122 22.7965 22.6122C22.5856 22.6122 22.3748 22.5324 22.2134 22.3716C21.8916 22.0512 21.8916 21.5295 22.2134 21.209L22.623 20.8011C22.9458 20.4806 23.4674 20.4806 23.7891 20.8011ZM21.5841 15.4977C21.5841 15.9516 21.2141 16.3191 20.7595 16.3191H20.1808C19.725 16.3191 19.3561 15.9505 19.3561 15.4977C19.3561 15.0449 19.7261 14.6764 20.1808 14.6764H20.7595C21.2163 14.6764 21.5852 15.0438 21.5852 15.4977H21.5841ZM22.2134 9.78643C21.8916 9.46597 21.8916 8.94428 22.2134 8.62382C22.5351 8.30337 23.0589 8.30337 23.3806 8.62382L23.7902 9.03177C24.112 9.35223 24.112 9.87392 23.7902 10.1944C23.6288 10.3552 23.418 10.435 23.2071 10.435C22.9963 10.435 22.7855 10.3552 22.6241 10.1944L22.2145 9.78643H22.2134Z" fill="#D92CFF"/>
</svg>
