<svg width="51" height="60" viewBox="0 0 51 60" fill="none" xmlns="http://www.w3.org/2000/svg">
<path d="M39.4989 41.9997C30.7123 45.3776 30.5157 45.8349 28.8368 45.8349L24.098 45.652L26.4669 45.0128C29.6257 44.1003 28.9346 39.5344 25.4802 39.5344C14.1283 40.4469 14.226 40.2651 12.9427 40.7214L7.31618 42.9123L7.21728 42.4549C7.01949 41.4509 5.83508 40.7203 4.74957 40.9947L1.39296 41.9072C0.504073 42.1816 -0.088132 43.0027 0.0107628 43.9163L2.37958 57.7946C2.57737 58.89 3.76178 59.5292 4.8473 59.2548L8.2039 58.3423C10.1783 57.7946 9.48721 55.7855 9.48721 55.6951C13.6338 53.1383 8.00611 55.0559 28.2435 53.3213C30.2179 53.2298 30.2179 52.6821 43.0509 45.9253C44.1364 45.2861 44.4331 43.9163 43.6431 42.9123C42.7542 41.9072 40.9776 41.3595 39.4965 41.9997H39.4989ZM4.35515 57.5213L1.98633 43.6429L5.34293 42.7304C5.54072 43.8259 7.51513 55.5133 7.71175 56.6087L4.35515 57.5213ZM42.0655 44.2821C42.0655 44.2821 42.0655 44.3736 41.9666 44.4651C28.7379 51.4037 29.2324 51.4952 28.0468 51.5866C11.7583 52.6821 11.5605 52.0429 9.98168 53.1394L9.09279 53.6872L7.6117 44.7395C16.9892 41.1787 10.8694 42.6389 25.4791 41.3616C25.8735 41.3616 26.2691 41.636 26.368 42.0008L26.4669 42.1838C26.5657 42.64 26.2691 43.0963 25.8746 43.1877C19.0625 45.3787 17.187 45.0139 17.3848 46.3837C17.4837 46.84 17.8781 47.2059 18.2737 47.2059L28.5402 47.6632C31.1068 47.7547 32.0945 46.7507 40.2877 43.6462C40.8799 43.3718 41.571 43.6462 41.9666 44.1024C42.0655 44.1939 42.0655 44.2854 42.0655 44.2854V44.2821Z" fill="#D92CFF"/>
<path d="M27.3558 11.3204C20.3471 11.3204 14.1272 15.4289 11.7584 21.455C11.5606 21.9113 11.8573 22.459 12.3506 22.642C12.4495 22.642 12.5484 22.7334 12.6473 22.7334C13.0417 22.7334 13.4373 22.459 13.5362 22.0942C15.6095 16.7073 21.1371 13.1466 27.2581 13.1466C27.8503 13.1466 28.2447 12.7818 28.2447 12.234C28.3436 11.6863 27.8503 11.3204 27.357 11.3204H27.3558Z" fill="#D92CFF"/>
<path d="M50.1597 25.7476H49.1731C48.6797 16.0692 40.881 8.21702 30.8112 6.6653C31.4034 5.93463 31.7978 5.1125 31.7978 4.10851C31.7978 1.82612 29.8234 0 27.3557 0C24.888 0 22.9136 1.82612 22.9136 4.10851C22.9136 5.1125 23.308 5.93463 23.9002 6.6653C13.8316 8.21702 6.03284 16.0692 5.53953 25.7476H4.5529C3.9607 25.7476 3.56628 26.1124 3.56628 26.6601V31.3163C3.56628 31.8641 3.9607 32.2289 4.5529 32.2289H7.11951L11.3638 36.6118C11.5616 36.7947 11.8572 36.8862 12.0549 36.8862H42.4598C42.7565 36.8862 43.0521 36.7947 43.1509 36.6118L47.3953 32.2289H49.9619C50.5541 32.2289 50.9485 31.8641 50.9485 31.3163V26.6601C51.1463 26.1124 50.7507 25.7476 50.1585 25.7476H50.1597ZM24.888 4.10851C24.888 2.83011 25.9735 1.82612 27.3557 1.82612C28.7379 1.82612 29.8234 2.83011 29.8234 4.10851C29.8234 5.3869 28.7379 6.39089 27.3557 6.39089C25.9735 6.39089 24.888 5.3869 24.888 4.10851ZM27.3557 8.21702C38.0177 8.21702 46.7042 15.9778 47.1987 25.6561H7.51393C8.00724 15.9778 16.6949 8.21702 27.3569 8.21702H27.3557ZM42.1632 35.0611H12.5471L9.78269 32.231H44.9264L42.1632 35.0611ZM49.1719 30.4049H5.53836V27.5748H49.1719V30.4049Z" fill="#D92CFF"/>
</svg>
