<svg width="22" height="16" viewBox="0 0 22 16" fill="none" xmlns="http://www.w3.org/2000/svg">
<path d="M0.757812 9.87337C0.757812 5.7099 3.60097 1.18956 8.88229 0L10.2751 2.91401C7.89615 3.74671 6.44495 4.93627 6.09675 6.54176C8.65016 6.60165 10.4487 8.62391 10.5072 11.0621C10.6232 13.6791 8.59253 15.8794 5.92306 15.9984C3.48572 16.0574 1.51263 14.5118 0.932314 12.0728C0.81625 11.419 0.758625 10.6453 0.758625 9.87254L0.757812 9.87337ZM11.8991 9.87337C11.8991 5.7099 14.8584 1.18956 20.0236 0L21.4164 2.91401C19.1535 3.74671 17.8184 5.05522 17.4126 6.54176C19.8499 6.60165 21.6485 8.62391 21.7069 11.0621C21.8806 13.6791 19.7339 15.8794 17.0644 15.9984C14.6855 16.0574 12.7124 14.5118 12.1321 12.0728C11.9576 11.419 11.9 10.6453 11.9 9.87254L11.8991 9.87337Z" fill="#808EE0"/>
</svg>
