<svg width="42" height="58" viewBox="0 0 42 58" fill="none" xmlns="http://www.w3.org/2000/svg">
<path d="M31.6245 49.7088C31.2605 49.7088 30.9649 50.0014 30.9649 50.3616V53.4044C30.9849 54.2822 30.6515 55.131 30.0402 55.7663C29.4276 56.4017 28.5866 56.7701 27.6996 56.7922H4.51894C3.63313 56.7701 2.7909 56.4005 2.17955 55.7663C1.56703 55.131 1.23485 54.2822 1.25369 53.4044V4.62941C1.23485 3.75156 1.56703 2.90286 2.17955 2.26749C2.79208 1.63213 3.63313 1.26373 4.51894 1.24158H7.15753L7.85722 2.97863C8.04687 3.47527 8.38376 3.90312 8.82431 4.20506C9.26486 4.507 9.78786 4.66905 10.3238 4.66905H21.9206C22.4566 4.66905 22.9796 4.507 23.4202 4.20506C23.8607 3.90312 24.1988 3.47527 24.3872 2.97863L25.0858 1.24158H27.7243C28.6102 1.26373 29.4524 1.63329 30.0637 2.26749C30.6763 2.90286 31.0084 3.75156 30.9896 4.62941V23.1576C31.0779 23.4257 31.3312 23.6064 31.6163 23.6064C31.9013 23.6064 32.1534 23.4257 32.2429 23.1576V4.62941C32.2582 3.42397 31.7929 2.2605 30.946 1.3943C30.1003 0.526944 28.9412 0.0268135 27.7243 0H4.51894C3.30095 0.0256477 2.14304 0.526944 1.29728 1.3943C0.450339 2.2605 -0.0149469 3.42397 0.000366342 4.62941V53.3706C-0.0149469 54.576 0.450339 55.7395 1.29728 56.6057C2.14304 57.4731 3.30213 57.9732 4.51894 58H27.7326C28.9506 57.9744 30.1085 57.4731 30.9554 56.6057C31.8012 55.7395 32.2677 54.576 32.2512 53.3706V50.329C32.2347 49.9932 31.9638 49.7251 31.6245 49.7088ZM12.6597 53.437C12.3134 53.437 12.033 53.7145 12.033 54.0572C12.033 54.4 12.3134 54.6775 12.6597 54.6775H19.593C19.864 54.59 20.0465 54.3394 20.0465 54.0572C20.0465 53.7751 19.864 53.5245 19.593 53.437H12.6597ZM35.3185 37.279L35.2655 36.6261C35.1607 35.2097 35.0676 34.0147 34.461 33.0809C34.0463 32.3966 33.3714 31.9046 32.5869 31.7169C32.4455 31.2949 32.0474 31.0093 31.5974 31.0093C31.1474 31.0093 30.7493 31.2949 30.6079 31.7169C29.8223 31.9128 29.1461 32.4047 28.7209 33.0879C28.1272 33.9961 28.0612 35.2167 27.9293 36.6261L27.8763 37.279C27.8127 37.9388 27.5159 38.5567 27.0388 39.0218C26.6583 39.4101 26.4581 39.937 26.484 40.4779C26.484 40.8253 26.7596 41.1133 27.1106 41.1308H29.9012V41.7965C29.9012 42.7128 30.6515 43.4542 31.5774 43.4542C32.5033 43.4542 33.2524 42.7116 33.2524 41.7965V41.0981H36.0559C36.4069 41.0807 36.6826 40.7939 36.6826 40.4453C36.7156 39.9032 36.5106 39.3728 36.1219 38.9892C35.6613 38.5287 35.3774 37.9237 35.3173 37.279H35.3185ZM32.0203 41.7965C32.0203 42.0273 31.8306 42.2138 31.5986 42.2138C31.3665 42.2138 31.1757 42.0261 31.1757 41.7965V41.0981H32.0203V41.7965ZM27.9764 39.8379C28.6349 39.1664 29.0448 38.2944 29.1379 37.3629L29.1909 36.6646C29.2839 35.3589 29.3629 34.354 29.7775 33.7198C29.9648 33.4097 30.2369 33.1578 30.562 32.9935C30.8883 32.8291 31.2535 32.7603 31.6174 32.7929C31.9732 32.7638 32.3313 32.8349 32.6481 32.997C32.965 33.1602 33.23 33.4085 33.4114 33.7128C33.8343 34.3656 33.9132 35.3775 34.0051 36.6704L34.0581 37.3233C34.1441 38.2559 34.5529 39.1326 35.2125 39.8041L27.9764 39.8367V39.8379ZM31.5974 27.8324C29.0248 27.8324 26.557 28.8432 24.7371 30.642C22.916 32.4409 21.8912 34.8809 21.8877 37.427C21.8841 39.9731 22.9007 42.4167 24.7159 44.2213C26.5311 46.026 28.9942 47.0438 31.5668 47.0519C34.1394 47.0601 36.6107 46.0575 38.4365 44.2645C40.2623 42.4715 41.2954 40.0338 41.3072 37.4888C41.3131 34.9369 40.293 32.4887 38.473 30.6805C36.6531 28.8735 34.1818 27.8558 31.6033 27.8523L31.5962 27.8324H31.5974ZM31.5974 45.8057C29.3511 45.8057 27.1978 44.9208 25.6111 43.3482C24.0244 41.7743 23.1351 39.6421 23.1398 37.4189C23.1445 35.1957 24.0421 33.0657 25.6359 31.5001C27.2284 29.9332 29.3864 29.0577 31.6328 29.067C33.8791 29.0764 36.0288 29.9694 37.6084 31.549C39.1881 33.1287 40.068 35.2656 40.055 37.4888C40.0444 39.7015 39.1504 41.8198 37.5672 43.382C35.9841 44.9441 33.8402 45.822 31.6057 45.8255L31.5986 45.8057H31.5974Z" fill="#D92CFF"/>
</svg>
