<svg width="52" height="47" viewBox="0 0 52 47" fill="none" xmlns="http://www.w3.org/2000/svg">
<path d="M7.36046 10.2329V5.47514C7.36046 5.13833 7.06118 4.86475 6.69275 4.86475C6.32431 4.86475 6.02504 5.13833 6.02504 5.47514V10.2329C4.64073 10.2536 3.52112 11.2858 3.52112 12.5567V18.9942C3.52112 20.264 4.64192 21.2962 6.02504 21.318V41.5263C6.02504 41.8642 6.32431 42.1367 6.69275 42.1367C7.06118 42.1367 7.36046 41.8642 7.36046 41.5263V21.318C8.74477 21.2962 9.86438 20.2651 9.86438 18.9942V12.5567C9.86438 11.2858 8.74477 10.2547 7.36046 10.2329ZM8.52895 18.9942C8.52895 19.6046 7.98644 20.1005 7.31873 20.1005H6.69632C6.69632 20.1005 6.69394 20.1005 6.69275 20.1005C6.69156 20.1005 6.69036 20.1005 6.68917 20.1005H6.06558C5.39786 20.1005 4.85535 19.6046 4.85535 18.9942V12.5567C4.85535 11.9464 5.39786 11.4504 6.06558 11.4504H7.31753C7.98525 11.4504 8.52776 11.9464 8.52776 12.5567V18.9942H8.52895Z" fill="#D92CFF"/>
<path d="M5.59679 13.496C5.22835 13.496 4.92908 13.7696 4.92908 14.1064C4.92908 14.4432 5.22835 14.7168 5.59679 14.7168H7.78831C8.15675 14.7168 8.45602 14.4432 8.45602 14.1064C8.45602 13.7696 8.15675 13.496 7.78831 13.496H5.59679Z" fill="#D92CFF"/>
<path d="M7.78831 15.1409H5.59679C5.22835 15.1409 4.92908 15.4145 4.92908 15.7513C4.92908 16.0881 5.22835 16.3616 5.59679 16.3616H7.78831C8.15675 16.3616 8.45602 16.0881 8.45602 15.7513C8.45602 15.4145 8.15675 15.1409 7.78831 15.1409Z" fill="#D92CFF"/>
<path d="M7.78831 16.7857H5.59679C5.22835 16.7857 4.92908 17.0593 4.92908 17.3961C4.92908 17.7329 5.22835 18.0065 5.59679 18.0065H7.78831C8.15675 18.0065 8.45602 17.7329 8.45602 17.3961C8.45602 17.0593 8.15675 16.7857 7.78831 16.7857Z" fill="#D92CFF"/>
<path d="M20.0372 22.8928V5.47385C20.0372 5.13705 19.7379 4.86346 19.3695 4.86346C19.0011 4.86346 18.7018 5.13705 18.7018 5.47385V22.8928C17.3175 22.9136 16.1979 23.9458 16.1979 25.2156V31.653C16.1979 32.9229 17.3187 33.9551 18.7018 33.9769V41.5239C18.7018 41.8618 19.0011 42.1343 19.3695 42.1343C19.7379 42.1343 20.0372 41.8618 20.0372 41.5239V33.9758C21.4215 33.954 22.5411 32.9229 22.5411 31.6519V25.2156C22.5411 23.9447 21.4215 22.9136 20.0372 22.8918V22.8928ZM21.2057 31.6541C21.2057 32.2634 20.6632 32.7604 19.9955 32.7604H18.7435C18.0758 32.7604 17.5333 32.2645 17.5333 31.6541V25.2167C17.5333 24.6074 18.0758 24.1104 18.7435 24.1104H19.9955C20.6632 24.1104 21.2057 24.6063 21.2057 25.2167V31.6541Z" fill="#D92CFF"/>
<path d="M18.2738 26.1564C17.9054 26.1564 17.6061 26.4289 17.6061 26.7668C17.6061 27.1047 17.9054 27.3772 18.2738 27.3772H20.4653C20.8337 27.3772 21.133 27.1047 21.133 26.7668C21.133 26.4289 20.8337 26.1564 20.4653 26.1564H18.2738Z" fill="#D92CFF"/>
<path d="M20.4642 27.8009H18.2727C17.9043 27.8009 17.605 28.0734 17.605 28.4113C17.605 28.7492 17.9043 29.0217 18.2727 29.0217H20.4642C20.8327 29.0217 21.1319 28.7492 21.1319 28.4113C21.1319 28.0734 20.8327 27.8009 20.4642 27.8009Z" fill="#D92CFF"/>
<path d="M20.4642 29.447H18.2727C17.9043 29.447 17.605 29.7195 17.605 30.0574C17.605 30.3953 17.9043 30.6678 18.2727 30.6678H20.4642C20.8327 30.6678 21.1319 30.3953 21.1319 30.0574C21.1319 29.7195 20.8327 29.447 20.4642 29.447Z" fill="#D92CFF"/>
<path d="M32.7118 17.1704V5.47385C32.7118 5.13705 32.4137 4.86346 32.0441 4.86346C31.6744 4.86346 31.3764 5.13705 31.3764 5.47385V17.1704C29.992 17.1912 28.8724 18.2234 28.8724 19.4943V25.9317C28.8724 27.2015 29.9932 28.2338 31.3764 28.2556V41.525C31.3764 41.8629 31.6744 42.1354 32.0441 42.1354C32.4137 42.1354 32.7118 41.8629 32.7118 41.525V28.2556C34.0961 28.2338 35.2157 27.2026 35.2157 25.9317V19.4943C35.2157 18.2234 34.0961 17.1922 32.7118 17.1704ZM33.8803 25.9317C33.8803 26.541 33.3378 27.038 32.67 27.038H31.4181C30.7504 27.038 30.2079 26.5421 30.2079 25.9317V19.4954C30.2079 18.885 30.7504 18.389 31.4181 18.389H32.67C33.3366 18.389 33.8803 18.885 33.8803 19.4954V25.9317Z" fill="#D92CFF"/>
<path d="M30.9498 20.4338C30.5802 20.4338 30.2821 20.7074 30.2821 21.0442C30.2821 21.381 30.5802 21.6546 30.9498 21.6546H33.1413C33.511 21.6546 33.8091 21.381 33.8091 21.0442C33.8091 20.7074 33.511 20.4338 33.1413 20.4338H30.9498Z" fill="#D92CFF"/>
<path d="M33.1399 22.0786H30.9483C30.5787 22.0786 30.2806 22.3522 30.2806 22.689C30.2806 23.0258 30.5787 23.2994 30.9483 23.2994H33.1399C33.5095 23.2994 33.8076 23.0258 33.8076 22.689C33.8076 22.3522 33.5095 22.0786 33.1399 22.0786Z" fill="#D92CFF"/>
<path d="M33.1399 23.7244H30.9483C30.5787 23.7244 30.2806 23.9969 30.2806 24.3348C30.2806 24.6726 30.5787 24.9451 30.9483 24.9451H33.1399C33.5095 24.9451 33.8076 24.6726 33.8076 24.3348C33.8076 23.9969 33.5095 23.7244 33.1399 23.7244Z" fill="#D92CFF"/>
<path d="M45.3888 12.235V5.47385C45.3888 5.13705 45.0907 4.86346 44.7211 4.86346C44.3514 4.86346 44.0534 5.13705 44.0534 5.47385V12.235C42.669 12.2557 41.5494 13.2879 41.5494 14.5589V20.9963C41.5494 22.2661 42.669 23.2983 44.0534 23.3201V41.5261C44.0534 41.864 44.3514 42.1365 44.7211 42.1365C45.0907 42.1365 45.3888 41.864 45.3888 41.5261V23.319C46.7731 23.2983 47.8927 22.2661 47.8927 20.9952V14.5589C47.8927 13.2879 46.7731 12.2568 45.3888 12.235ZM46.5573 20.9963C46.5573 21.6067 46.0148 22.1026 45.347 22.1026H44.0951C43.4286 22.1026 42.8849 21.6067 42.8849 20.9963V14.5599C42.8849 13.9496 43.4274 13.4536 44.0951 13.4536H45.347C46.0136 13.4536 46.5573 13.9496 46.5573 14.5599V20.9963Z" fill="#D92CFF"/>
<path d="M43.6255 15.4983C43.2559 15.4983 42.9578 15.7719 42.9578 16.1087C42.9578 16.4455 43.2559 16.7191 43.6255 16.7191H45.817C46.1866 16.7191 46.4847 16.4455 46.4847 16.1087C46.4847 15.7719 46.1866 15.4983 45.817 15.4983H43.6255Z" fill="#D92CFF"/>
<path d="M45.817 17.1432H43.6255C43.2559 17.1432 42.9578 17.4168 42.9578 17.7536C42.9578 18.0904 43.2559 18.364 43.6255 18.364H45.817C46.1866 18.364 46.4847 18.0904 46.4847 17.7536C46.4847 17.4168 46.1866 17.1432 45.817 17.1432Z" fill="#D92CFF"/>
<path d="M45.817 18.7892H43.6255C43.2559 18.7892 42.9578 19.0628 42.9578 19.3996C42.9578 19.7364 43.2559 20.01 43.6255 20.01H45.817C46.1866 20.01 46.4847 19.7364 46.4847 19.3996C46.4847 19.0628 46.1866 18.7892 45.817 18.7892Z" fill="#D92CFF"/>
<path d="M47.6162 0H3.79761C1.70386 0 0 1.55867 0 3.47159V43.5284C0 45.4435 1.70386 47 3.79761 47H47.6162C49.7099 47 51.4138 45.4424 51.4138 43.5284V3.47159C51.4138 1.55758 49.7099 0 47.6162 0ZM50.0784 43.5295C50.0784 44.771 48.9743 45.7803 47.6162 45.7803H3.7988C2.44072 45.7803 1.33662 44.771 1.33662 43.5295V3.47268C1.33662 2.23119 2.44072 1.22187 3.7988 1.22187H47.6174C48.9754 1.22187 50.0796 2.23119 50.0796 3.47268V43.5295H50.0784Z" fill="#D92CFF"/>
</svg>
